M48
;DRILL file {KiCad 4.0.7} date 12/08/18 15:09:23
;FORMAT={-:-/ absolute / inch / decimal}
FMAT,2
INCH,TZ
T1C0.035
T2C0.039
T3C0.091
T4C0.128
%
G90
G05
M72
T1
X5.9886Y-3.1236
X6.0386Y-3.0236
X6.0886Y-3.1236
X6.1386Y-3.0236
X6.1886Y-3.1236
X6.2386Y-3.0236
X6.2886Y-3.1236
X6.3386Y-3.0236
T2
X2.8563Y-2.9734
X2.9563Y-2.9734
X3.0362Y-2.9734
X3.1362Y-2.9734
X3.6383Y-2.9734
X3.7383Y-2.9734
X3.8182Y-2.9734
X3.9182Y-2.9734
X4.4183Y-2.9734
X4.5183Y-2.9734
X4.5982Y-2.9734
X4.6982Y-2.9734
X5.1983Y-2.9734
X5.2983Y-2.9734
X5.3782Y-2.9734
X5.4782Y-2.9734
T3
X2.7362Y-2.8683
X3.2763Y-2.8683
X3.5182Y-2.8683
X4.0583Y-2.8683
X4.2982Y-2.8683
X4.8383Y-2.8683
X5.0782Y-2.8683
X5.6183Y-2.8683
T4
X5.9299Y-2.7736
X6.3972Y-2.7736
T0
M30
