G04 #@! TF.FileFunction,Legend,Top*
%FSLAX46Y46*%
G04 Gerber Fmt 4.6, Leading zero omitted, Abs format (unit mm)*
G04 Created by KiCad (PCBNEW 4.0.7) date 09/23/18 17:07:03*
%MOMM*%
%LPD*%
G01*
G04 APERTURE LIST*
%ADD10C,0.100000*%
%ADD11C,0.300000*%
%ADD12C,1.270000*%
%ADD13C,0.150000*%
%ADD14C,0.120000*%
G04 APERTURE END LIST*
D10*
D11*
X97926071Y-101835858D02*
X98047024Y-101563715D01*
X98167976Y-101473000D01*
X98409881Y-101382286D01*
X98772738Y-101382286D01*
X99014643Y-101473000D01*
X99135595Y-101563715D01*
X99256548Y-101745143D01*
X99256548Y-102470858D01*
X96716548Y-102470858D01*
X96716548Y-101835858D01*
X96837500Y-101654429D01*
X96958452Y-101563715D01*
X97200357Y-101473000D01*
X97442262Y-101473000D01*
X97684167Y-101563715D01*
X97805119Y-101654429D01*
X97926071Y-101835858D01*
X97926071Y-102470858D01*
X97563214Y-99749429D02*
X99256548Y-99749429D01*
X97563214Y-100565858D02*
X98893690Y-100565858D01*
X99135595Y-100475143D01*
X99256548Y-100293715D01*
X99256548Y-100021572D01*
X99135595Y-99840143D01*
X99014643Y-99749429D01*
X99256548Y-98842287D02*
X97563214Y-98842287D01*
X96716548Y-98842287D02*
X96837500Y-98933001D01*
X96958452Y-98842287D01*
X96837500Y-98751572D01*
X96716548Y-98842287D01*
X96958452Y-98842287D01*
X99256548Y-97663001D02*
X99135595Y-97844429D01*
X98893690Y-97935144D01*
X96716548Y-97935144D01*
X97563214Y-97209429D02*
X97563214Y-96483715D01*
X96716548Y-96937287D02*
X98893690Y-96937287D01*
X99135595Y-96846572D01*
X99256548Y-96665144D01*
X99256548Y-96483715D01*
X99256548Y-94397287D02*
X97563214Y-94397287D01*
X96716548Y-94397287D02*
X96837500Y-94488001D01*
X96958452Y-94397287D01*
X96837500Y-94306572D01*
X96716548Y-94397287D01*
X96958452Y-94397287D01*
X97563214Y-93490144D02*
X99256548Y-93490144D01*
X97805119Y-93490144D02*
X97684167Y-93399429D01*
X97563214Y-93218001D01*
X97563214Y-92945858D01*
X97684167Y-92764429D01*
X97926071Y-92673715D01*
X99256548Y-92673715D01*
X96958452Y-90405858D02*
X96837500Y-90315144D01*
X96716548Y-90133715D01*
X96716548Y-89680144D01*
X96837500Y-89498715D01*
X96958452Y-89408001D01*
X97200357Y-89317286D01*
X97442262Y-89317286D01*
X97805119Y-89408001D01*
X99256548Y-90496572D01*
X99256548Y-89317286D01*
X96716548Y-88138000D02*
X96716548Y-87956572D01*
X96837500Y-87775143D01*
X96958452Y-87684429D01*
X97200357Y-87593715D01*
X97684167Y-87503000D01*
X98288929Y-87503000D01*
X98772738Y-87593715D01*
X99014643Y-87684429D01*
X99135595Y-87775143D01*
X99256548Y-87956572D01*
X99256548Y-88138000D01*
X99135595Y-88319429D01*
X99014643Y-88410143D01*
X98772738Y-88500858D01*
X98288929Y-88591572D01*
X97684167Y-88591572D01*
X97200357Y-88500858D01*
X96958452Y-88410143D01*
X96837500Y-88319429D01*
X96716548Y-88138000D01*
X99256548Y-85688714D02*
X99256548Y-86777286D01*
X99256548Y-86233000D02*
X96716548Y-86233000D01*
X97079405Y-86414429D01*
X97321310Y-86595857D01*
X97442262Y-86777286D01*
X97805119Y-84600143D02*
X97684167Y-84781571D01*
X97563214Y-84872286D01*
X97321310Y-84963000D01*
X97200357Y-84963000D01*
X96958452Y-84872286D01*
X96837500Y-84781571D01*
X96716548Y-84600143D01*
X96716548Y-84237286D01*
X96837500Y-84055857D01*
X96958452Y-83965143D01*
X97200357Y-83874428D01*
X97321310Y-83874428D01*
X97563214Y-83965143D01*
X97684167Y-84055857D01*
X97805119Y-84237286D01*
X97805119Y-84600143D01*
X97926071Y-84781571D01*
X98047024Y-84872286D01*
X98288929Y-84963000D01*
X98772738Y-84963000D01*
X99014643Y-84872286D01*
X99135595Y-84781571D01*
X99256548Y-84600143D01*
X99256548Y-84237286D01*
X99135595Y-84055857D01*
X99014643Y-83965143D01*
X98772738Y-83874428D01*
X98288929Y-83874428D01*
X98047024Y-83965143D01*
X97926071Y-84055857D01*
X97805119Y-84237286D01*
X54567666Y-54730631D02*
X54567666Y-53079631D01*
X55160333Y-54258917D01*
X55753000Y-53079631D01*
X55753000Y-54730631D01*
X57361666Y-54730631D02*
X57361666Y-53865821D01*
X57277000Y-53708583D01*
X57107666Y-53629964D01*
X56769000Y-53629964D01*
X56599666Y-53708583D01*
X57361666Y-54652012D02*
X57192333Y-54730631D01*
X56769000Y-54730631D01*
X56599666Y-54652012D01*
X56515000Y-54494774D01*
X56515000Y-54337536D01*
X56599666Y-54180298D01*
X56769000Y-54101679D01*
X57192333Y-54101679D01*
X57361666Y-54023060D01*
X58970333Y-54730631D02*
X58970333Y-53079631D01*
X58970333Y-54652012D02*
X58801000Y-54730631D01*
X58462333Y-54730631D01*
X58293000Y-54652012D01*
X58208333Y-54573393D01*
X58123667Y-54416155D01*
X58123667Y-53944440D01*
X58208333Y-53787202D01*
X58293000Y-53708583D01*
X58462333Y-53629964D01*
X58801000Y-53629964D01*
X58970333Y-53708583D01*
X60494334Y-54652012D02*
X60325000Y-54730631D01*
X59986334Y-54730631D01*
X59817000Y-54652012D01*
X59732334Y-54494774D01*
X59732334Y-53865821D01*
X59817000Y-53708583D01*
X59986334Y-53629964D01*
X60325000Y-53629964D01*
X60494334Y-53708583D01*
X60579000Y-53865821D01*
X60579000Y-54023060D01*
X59732334Y-54180298D01*
X62695667Y-54730631D02*
X62695667Y-53079631D01*
X62695667Y-53708583D02*
X62865001Y-53629964D01*
X63203667Y-53629964D01*
X63373001Y-53708583D01*
X63457667Y-53787202D01*
X63542334Y-53944440D01*
X63542334Y-54416155D01*
X63457667Y-54573393D01*
X63373001Y-54652012D01*
X63203667Y-54730631D01*
X62865001Y-54730631D01*
X62695667Y-54652012D01*
X64135001Y-53629964D02*
X64558334Y-54730631D01*
X64981668Y-53629964D02*
X64558334Y-54730631D01*
X64389001Y-55123726D01*
X64304334Y-55202345D01*
X64135001Y-55280964D01*
X51646667Y-57035417D02*
X52493333Y-57035417D01*
X51477333Y-57507131D02*
X52070000Y-55856131D01*
X52662667Y-57507131D01*
X53509333Y-57507131D02*
X53340000Y-57428512D01*
X53255333Y-57271274D01*
X53255333Y-55856131D01*
X54864000Y-57428512D02*
X54694666Y-57507131D01*
X54356000Y-57507131D01*
X54186666Y-57428512D01*
X54102000Y-57271274D01*
X54102000Y-56642321D01*
X54186666Y-56485083D01*
X54356000Y-56406464D01*
X54694666Y-56406464D01*
X54864000Y-56485083D01*
X54948666Y-56642321D01*
X54948666Y-56799560D01*
X54102000Y-56956798D01*
X55541333Y-57507131D02*
X56472666Y-56406464D01*
X55541333Y-56406464D02*
X56472666Y-57507131D01*
X59520666Y-57349893D02*
X59436000Y-57428512D01*
X59182000Y-57507131D01*
X59012666Y-57507131D01*
X58758666Y-57428512D01*
X58589333Y-57271274D01*
X58504666Y-57114036D01*
X58420000Y-56799560D01*
X58420000Y-56563702D01*
X58504666Y-56249226D01*
X58589333Y-56091988D01*
X58758666Y-55934750D01*
X59012666Y-55856131D01*
X59182000Y-55856131D01*
X59436000Y-55934750D01*
X59520666Y-56013369D01*
X60536666Y-57507131D02*
X60367333Y-57428512D01*
X60282666Y-57349893D01*
X60198000Y-57192655D01*
X60198000Y-56720940D01*
X60282666Y-56563702D01*
X60367333Y-56485083D01*
X60536666Y-56406464D01*
X60790666Y-56406464D01*
X60960000Y-56485083D01*
X61044666Y-56563702D01*
X61129333Y-56720940D01*
X61129333Y-57192655D01*
X61044666Y-57349893D01*
X60960000Y-57428512D01*
X60790666Y-57507131D01*
X60536666Y-57507131D01*
X61722000Y-56406464D02*
X62060667Y-57507131D01*
X62399333Y-56720940D01*
X62738000Y-57507131D01*
X63076667Y-56406464D01*
X64516000Y-57507131D02*
X64516000Y-55856131D01*
X64516000Y-57428512D02*
X64346667Y-57507131D01*
X64008000Y-57507131D01*
X63838667Y-57428512D01*
X63754000Y-57349893D01*
X63669334Y-57192655D01*
X63669334Y-56720940D01*
X63754000Y-56563702D01*
X63838667Y-56485083D01*
X64008000Y-56406464D01*
X64346667Y-56406464D01*
X64516000Y-56485083D01*
X66040001Y-57428512D02*
X65870667Y-57507131D01*
X65532001Y-57507131D01*
X65362667Y-57428512D01*
X65278001Y-57271274D01*
X65278001Y-56642321D01*
X65362667Y-56485083D01*
X65532001Y-56406464D01*
X65870667Y-56406464D01*
X66040001Y-56485083D01*
X66124667Y-56642321D01*
X66124667Y-56799560D01*
X65278001Y-56956798D01*
X66886667Y-56406464D02*
X66886667Y-57507131D01*
X66886667Y-56563702D02*
X66971334Y-56485083D01*
X67140667Y-56406464D01*
X67394667Y-56406464D01*
X67564001Y-56485083D01*
X67648667Y-56642321D01*
X67648667Y-57507131D01*
D12*
X76071488Y-53721000D02*
X75625477Y-53418619D01*
X74899762Y-53418619D01*
X74136250Y-53721000D01*
X73576846Y-54325762D01*
X73259346Y-54930524D01*
X72866250Y-56140048D01*
X72752857Y-57047190D01*
X72843572Y-58256714D01*
X73009882Y-58861476D01*
X73418095Y-59466238D01*
X74106012Y-59768619D01*
X74589822Y-59768619D01*
X75353333Y-59466238D01*
X75633036Y-59163857D01*
X75897619Y-57047190D01*
X74930000Y-57047190D01*
X77802620Y-53418619D02*
X80705477Y-53418619D01*
X78460298Y-59768619D02*
X79254048Y-53418619D01*
X84583512Y-59163857D02*
X84303809Y-59466238D01*
X83540298Y-59768619D01*
X83056488Y-59768619D01*
X82368571Y-59466238D01*
X81960358Y-58861476D01*
X81794048Y-58256714D01*
X81703333Y-57047190D01*
X81816726Y-56140048D01*
X82209822Y-54930524D01*
X82527322Y-54325762D01*
X83086726Y-53721000D01*
X83850238Y-53418619D01*
X84334048Y-53418619D01*
X85021964Y-53721000D01*
X85226071Y-54023381D01*
X86685060Y-59768619D02*
X87478810Y-53418619D01*
X87100833Y-56442429D02*
X90003690Y-56442429D01*
X89587917Y-59768619D02*
X90381667Y-53418619D01*
X91802857Y-59466238D02*
X92490774Y-59768619D01*
X93700298Y-59768619D01*
X94221905Y-59466238D01*
X94501607Y-59163857D01*
X94819107Y-58559095D01*
X94894702Y-57954333D01*
X94728393Y-57349571D01*
X94524286Y-57047190D01*
X94078274Y-56744810D01*
X93148452Y-56442429D01*
X92702441Y-56140048D01*
X92498334Y-55837667D01*
X92332024Y-55232905D01*
X92407619Y-54628143D01*
X92725119Y-54023381D01*
X93004822Y-53721000D01*
X93526429Y-53418619D01*
X94735953Y-53418619D01*
X95423869Y-53721000D01*
D13*
X33020000Y-61976000D02*
X33020000Y-115316000D01*
X99060000Y-74676000D02*
X99060000Y-63500000D01*
X101600000Y-77216000D02*
X99060000Y-74676000D01*
X101600000Y-111506000D02*
X101600000Y-77216000D01*
X99060000Y-114046000D02*
X101600000Y-111506000D01*
X99060000Y-115316000D02*
X99060000Y-114046000D01*
X97536000Y-61976000D02*
X99060000Y-63500000D01*
X33020000Y-115316000D02*
X99060000Y-115316000D01*
X33020000Y-61976000D02*
X97536000Y-61976000D01*
D14*
X70935172Y-74892578D02*
G75*
G02X70935490Y-76492000I1454828J-799422D01*
G01*
X70935172Y-102070578D02*
G75*
G02X70935490Y-103670000I1454828J-799422D01*
G01*
X70935172Y-87973578D02*
G75*
G02X70935490Y-89573000I1454828J-799422D01*
G01*
X91958000Y-105320000D02*
X91958000Y-99370000D01*
X91958000Y-99370000D02*
X76858000Y-99370000D01*
X76858000Y-99370000D02*
X76858000Y-105320000D01*
X76858000Y-105320000D02*
X91958000Y-105320000D01*
X88658000Y-105320000D02*
X88658000Y-104570000D01*
X88658000Y-104570000D02*
X80158000Y-104570000D01*
X80158000Y-104570000D02*
X80158000Y-105320000D01*
X80158000Y-105320000D02*
X88658000Y-105320000D01*
X91958000Y-105320000D02*
X91958000Y-104570000D01*
X91958000Y-104570000D02*
X90158000Y-104570000D01*
X90158000Y-104570000D02*
X90158000Y-105320000D01*
X90158000Y-105320000D02*
X91958000Y-105320000D01*
X78658000Y-105320000D02*
X78658000Y-104570000D01*
X78658000Y-104570000D02*
X76858000Y-104570000D01*
X76858000Y-104570000D02*
X76858000Y-105320000D01*
X76858000Y-105320000D02*
X78658000Y-105320000D01*
X91958000Y-103070000D02*
X91208000Y-103070000D01*
X91208000Y-103070000D02*
X91208000Y-100120000D01*
X91208000Y-100120000D02*
X84408000Y-100120000D01*
X76858000Y-103070000D02*
X77608000Y-103070000D01*
X77608000Y-103070000D02*
X77608000Y-100120000D01*
X77608000Y-100120000D02*
X84408000Y-100120000D01*
X89758000Y-105620000D02*
X92258000Y-105620000D01*
X92258000Y-105620000D02*
X92258000Y-103120000D01*
X54372000Y-108200500D02*
G75*
G02X56372000Y-108200500I1000000J0D01*
G01*
X56372000Y-108200500D02*
X58022000Y-108200500D01*
X58022000Y-108200500D02*
X58022000Y-72520500D01*
X58022000Y-72520500D02*
X52722000Y-72520500D01*
X52722000Y-72520500D02*
X52722000Y-108200500D01*
X52722000Y-108200500D02*
X54372000Y-108200500D01*
X91958000Y-78142000D02*
X91958000Y-72192000D01*
X91958000Y-72192000D02*
X76858000Y-72192000D01*
X76858000Y-72192000D02*
X76858000Y-78142000D01*
X76858000Y-78142000D02*
X91958000Y-78142000D01*
X88658000Y-78142000D02*
X88658000Y-77392000D01*
X88658000Y-77392000D02*
X80158000Y-77392000D01*
X80158000Y-77392000D02*
X80158000Y-78142000D01*
X80158000Y-78142000D02*
X88658000Y-78142000D01*
X91958000Y-78142000D02*
X91958000Y-77392000D01*
X91958000Y-77392000D02*
X90158000Y-77392000D01*
X90158000Y-77392000D02*
X90158000Y-78142000D01*
X90158000Y-78142000D02*
X91958000Y-78142000D01*
X78658000Y-78142000D02*
X78658000Y-77392000D01*
X78658000Y-77392000D02*
X76858000Y-77392000D01*
X76858000Y-77392000D02*
X76858000Y-78142000D01*
X76858000Y-78142000D02*
X78658000Y-78142000D01*
X91958000Y-75892000D02*
X91208000Y-75892000D01*
X91208000Y-75892000D02*
X91208000Y-72942000D01*
X91208000Y-72942000D02*
X84408000Y-72942000D01*
X76858000Y-75892000D02*
X77608000Y-75892000D01*
X77608000Y-75892000D02*
X77608000Y-72942000D01*
X77608000Y-72942000D02*
X84408000Y-72942000D01*
X89758000Y-78442000D02*
X92258000Y-78442000D01*
X92258000Y-78442000D02*
X92258000Y-75942000D01*
X61966000Y-79084000D02*
X61966000Y-85034000D01*
X61966000Y-85034000D02*
X69566000Y-85034000D01*
X69566000Y-85034000D02*
X69566000Y-79084000D01*
X69566000Y-79084000D02*
X61966000Y-79084000D01*
X65266000Y-79084000D02*
X65266000Y-79834000D01*
X65266000Y-79834000D02*
X66266000Y-79834000D01*
X66266000Y-79834000D02*
X66266000Y-79084000D01*
X66266000Y-79084000D02*
X65266000Y-79084000D01*
X61966000Y-79084000D02*
X61966000Y-79834000D01*
X61966000Y-79834000D02*
X63766000Y-79834000D01*
X63766000Y-79834000D02*
X63766000Y-79084000D01*
X63766000Y-79084000D02*
X61966000Y-79084000D01*
X67766000Y-79084000D02*
X67766000Y-79834000D01*
X67766000Y-79834000D02*
X69566000Y-79834000D01*
X69566000Y-79834000D02*
X69566000Y-79084000D01*
X69566000Y-79084000D02*
X67766000Y-79084000D01*
X61966000Y-81334000D02*
X62716000Y-81334000D01*
X62716000Y-81334000D02*
X62716000Y-84284000D01*
X62716000Y-84284000D02*
X65766000Y-84284000D01*
X69566000Y-81334000D02*
X68816000Y-81334000D01*
X68816000Y-81334000D02*
X68816000Y-84284000D01*
X68816000Y-84284000D02*
X65766000Y-84284000D01*
X64166000Y-78784000D02*
X61666000Y-78784000D01*
X61666000Y-78784000D02*
X61666000Y-81284000D01*
X92332871Y-88773000D02*
G75*
G03X92332871Y-88773000I-8004871J0D01*
G01*
X28198000Y-53218000D02*
X28198000Y-68458000D01*
X46228000Y-68458000D02*
X37238000Y-68448000D01*
X46228000Y-68458000D02*
X46228000Y-53218000D01*
X46228000Y-53218000D02*
X37228000Y-53218000D01*
X34898000Y-68448000D02*
X28198000Y-68458000D01*
X34908000Y-53218000D02*
X28198000Y-53218000D01*
X28198000Y-85984000D02*
X28198000Y-101224000D01*
X46228000Y-101224000D02*
X37238000Y-101214000D01*
X46228000Y-101224000D02*
X46228000Y-85984000D01*
X46228000Y-85984000D02*
X37228000Y-85984000D01*
X34898000Y-101214000D02*
X28198000Y-101224000D01*
X34908000Y-85984000D02*
X28198000Y-85984000D01*
D13*
X68874095Y-72445619D02*
X68921714Y-72398000D01*
X69016952Y-72350381D01*
X69255048Y-72350381D01*
X69350286Y-72398000D01*
X69397905Y-72445619D01*
X69445524Y-72540857D01*
X69445524Y-72636095D01*
X69397905Y-72778952D01*
X68826476Y-73350381D01*
X69445524Y-73350381D01*
X69826476Y-72445619D02*
X69874095Y-72398000D01*
X69969333Y-72350381D01*
X70207429Y-72350381D01*
X70302667Y-72398000D01*
X70350286Y-72445619D01*
X70397905Y-72540857D01*
X70397905Y-72636095D01*
X70350286Y-72778952D01*
X69778857Y-73350381D01*
X70397905Y-73350381D01*
X71016952Y-72350381D02*
X71112191Y-72350381D01*
X71207429Y-72398000D01*
X71255048Y-72445619D01*
X71302667Y-72540857D01*
X71350286Y-72731333D01*
X71350286Y-72969429D01*
X71302667Y-73159905D01*
X71255048Y-73255143D01*
X71207429Y-73302762D01*
X71112191Y-73350381D01*
X71016952Y-73350381D01*
X70921714Y-73302762D01*
X70874095Y-73255143D01*
X70826476Y-73159905D01*
X70778857Y-72969429D01*
X70778857Y-72731333D01*
X70826476Y-72540857D01*
X70874095Y-72445619D01*
X70921714Y-72398000D01*
X71016952Y-72350381D01*
X71540762Y-73445619D02*
X72302667Y-73445619D01*
X72731238Y-72350381D02*
X72921715Y-72350381D01*
X73016953Y-72398000D01*
X73112191Y-72493238D01*
X73159810Y-72683714D01*
X73159810Y-73017048D01*
X73112191Y-73207524D01*
X73016953Y-73302762D01*
X72921715Y-73350381D01*
X72731238Y-73350381D01*
X72636000Y-73302762D01*
X72540762Y-73207524D01*
X72493143Y-73017048D01*
X72493143Y-72683714D01*
X72540762Y-72493238D01*
X72636000Y-72398000D01*
X72731238Y-72350381D01*
X73588381Y-73350381D02*
X73588381Y-72350381D01*
X74016953Y-73350381D02*
X74016953Y-72826571D01*
X73969334Y-72731333D01*
X73874096Y-72683714D01*
X73731238Y-72683714D01*
X73636000Y-72731333D01*
X73588381Y-72778952D01*
X74493143Y-73350381D02*
X74493143Y-72683714D01*
X74493143Y-72778952D02*
X74540762Y-72731333D01*
X74636000Y-72683714D01*
X74778858Y-72683714D01*
X74874096Y-72731333D01*
X74921715Y-72826571D01*
X74921715Y-73350381D01*
X74921715Y-72826571D02*
X74969334Y-72731333D01*
X75064572Y-72683714D01*
X75207429Y-72683714D01*
X75302667Y-72731333D01*
X75350286Y-72826571D01*
X75350286Y-73350381D01*
X68874095Y-99623619D02*
X68921714Y-99576000D01*
X69016952Y-99528381D01*
X69255048Y-99528381D01*
X69350286Y-99576000D01*
X69397905Y-99623619D01*
X69445524Y-99718857D01*
X69445524Y-99814095D01*
X69397905Y-99956952D01*
X68826476Y-100528381D01*
X69445524Y-100528381D01*
X69826476Y-99623619D02*
X69874095Y-99576000D01*
X69969333Y-99528381D01*
X70207429Y-99528381D01*
X70302667Y-99576000D01*
X70350286Y-99623619D01*
X70397905Y-99718857D01*
X70397905Y-99814095D01*
X70350286Y-99956952D01*
X69778857Y-100528381D01*
X70397905Y-100528381D01*
X71016952Y-99528381D02*
X71112191Y-99528381D01*
X71207429Y-99576000D01*
X71255048Y-99623619D01*
X71302667Y-99718857D01*
X71350286Y-99909333D01*
X71350286Y-100147429D01*
X71302667Y-100337905D01*
X71255048Y-100433143D01*
X71207429Y-100480762D01*
X71112191Y-100528381D01*
X71016952Y-100528381D01*
X70921714Y-100480762D01*
X70874095Y-100433143D01*
X70826476Y-100337905D01*
X70778857Y-100147429D01*
X70778857Y-99909333D01*
X70826476Y-99718857D01*
X70874095Y-99623619D01*
X70921714Y-99576000D01*
X71016952Y-99528381D01*
X71540762Y-100623619D02*
X72302667Y-100623619D01*
X72731238Y-99528381D02*
X72921715Y-99528381D01*
X73016953Y-99576000D01*
X73112191Y-99671238D01*
X73159810Y-99861714D01*
X73159810Y-100195048D01*
X73112191Y-100385524D01*
X73016953Y-100480762D01*
X72921715Y-100528381D01*
X72731238Y-100528381D01*
X72636000Y-100480762D01*
X72540762Y-100385524D01*
X72493143Y-100195048D01*
X72493143Y-99861714D01*
X72540762Y-99671238D01*
X72636000Y-99576000D01*
X72731238Y-99528381D01*
X73588381Y-100528381D02*
X73588381Y-99528381D01*
X74016953Y-100528381D02*
X74016953Y-100004571D01*
X73969334Y-99909333D01*
X73874096Y-99861714D01*
X73731238Y-99861714D01*
X73636000Y-99909333D01*
X73588381Y-99956952D01*
X74493143Y-100528381D02*
X74493143Y-99861714D01*
X74493143Y-99956952D02*
X74540762Y-99909333D01*
X74636000Y-99861714D01*
X74778858Y-99861714D01*
X74874096Y-99909333D01*
X74921715Y-100004571D01*
X74921715Y-100528381D01*
X74921715Y-100004571D02*
X74969334Y-99909333D01*
X75064572Y-99861714D01*
X75207429Y-99861714D01*
X75302667Y-99909333D01*
X75350286Y-100004571D01*
X75350286Y-100528381D01*
X68620095Y-91241619D02*
X68667714Y-91194000D01*
X68762952Y-91146381D01*
X69001048Y-91146381D01*
X69096286Y-91194000D01*
X69143905Y-91241619D01*
X69191524Y-91336857D01*
X69191524Y-91432095D01*
X69143905Y-91574952D01*
X68572476Y-92146381D01*
X69191524Y-92146381D01*
X69572476Y-91241619D02*
X69620095Y-91194000D01*
X69715333Y-91146381D01*
X69953429Y-91146381D01*
X70048667Y-91194000D01*
X70096286Y-91241619D01*
X70143905Y-91336857D01*
X70143905Y-91432095D01*
X70096286Y-91574952D01*
X69524857Y-92146381D01*
X70143905Y-92146381D01*
X70762952Y-91146381D02*
X70858191Y-91146381D01*
X70953429Y-91194000D01*
X71001048Y-91241619D01*
X71048667Y-91336857D01*
X71096286Y-91527333D01*
X71096286Y-91765429D01*
X71048667Y-91955905D01*
X71001048Y-92051143D01*
X70953429Y-92098762D01*
X70858191Y-92146381D01*
X70762952Y-92146381D01*
X70667714Y-92098762D01*
X70620095Y-92051143D01*
X70572476Y-91955905D01*
X70524857Y-91765429D01*
X70524857Y-91527333D01*
X70572476Y-91336857D01*
X70620095Y-91241619D01*
X70667714Y-91194000D01*
X70762952Y-91146381D01*
X71286762Y-92241619D02*
X72048667Y-92241619D01*
X72477238Y-91146381D02*
X72667715Y-91146381D01*
X72762953Y-91194000D01*
X72858191Y-91289238D01*
X72905810Y-91479714D01*
X72905810Y-91813048D01*
X72858191Y-92003524D01*
X72762953Y-92098762D01*
X72667715Y-92146381D01*
X72477238Y-92146381D01*
X72382000Y-92098762D01*
X72286762Y-92003524D01*
X72239143Y-91813048D01*
X72239143Y-91479714D01*
X72286762Y-91289238D01*
X72382000Y-91194000D01*
X72477238Y-91146381D01*
X73334381Y-92146381D02*
X73334381Y-91146381D01*
X73762953Y-92146381D02*
X73762953Y-91622571D01*
X73715334Y-91527333D01*
X73620096Y-91479714D01*
X73477238Y-91479714D01*
X73382000Y-91527333D01*
X73334381Y-91574952D01*
X74239143Y-92146381D02*
X74239143Y-91479714D01*
X74239143Y-91574952D02*
X74286762Y-91527333D01*
X74382000Y-91479714D01*
X74524858Y-91479714D01*
X74620096Y-91527333D01*
X74667715Y-91622571D01*
X74667715Y-92146381D01*
X74667715Y-91622571D02*
X74715334Y-91527333D01*
X74810572Y-91479714D01*
X74953429Y-91479714D01*
X75048667Y-91527333D01*
X75096286Y-91622571D01*
X75096286Y-92146381D01*
X81351809Y-97544000D02*
X81256571Y-97496381D01*
X81113714Y-97496381D01*
X80970856Y-97544000D01*
X80875618Y-97639238D01*
X80827999Y-97734476D01*
X80780380Y-97924952D01*
X80780380Y-98067810D01*
X80827999Y-98258286D01*
X80875618Y-98353524D01*
X80970856Y-98448762D01*
X81113714Y-98496381D01*
X81208952Y-98496381D01*
X81351809Y-98448762D01*
X81399428Y-98401143D01*
X81399428Y-98067810D01*
X81208952Y-98067810D01*
X81827999Y-98496381D02*
X81827999Y-97829714D01*
X81827999Y-98020190D02*
X81875618Y-97924952D01*
X81923237Y-97877333D01*
X82018475Y-97829714D01*
X82113714Y-97829714D01*
X82828000Y-98448762D02*
X82732762Y-98496381D01*
X82542285Y-98496381D01*
X82447047Y-98448762D01*
X82399428Y-98353524D01*
X82399428Y-97972571D01*
X82447047Y-97877333D01*
X82542285Y-97829714D01*
X82732762Y-97829714D01*
X82828000Y-97877333D01*
X82875619Y-97972571D01*
X82875619Y-98067810D01*
X82399428Y-98163048D01*
X83685143Y-98448762D02*
X83589905Y-98496381D01*
X83399428Y-98496381D01*
X83304190Y-98448762D01*
X83256571Y-98353524D01*
X83256571Y-97972571D01*
X83304190Y-97877333D01*
X83399428Y-97829714D01*
X83589905Y-97829714D01*
X83685143Y-97877333D01*
X83732762Y-97972571D01*
X83732762Y-98067810D01*
X83256571Y-98163048D01*
X84161333Y-97829714D02*
X84161333Y-98496381D01*
X84161333Y-97924952D02*
X84208952Y-97877333D01*
X84304190Y-97829714D01*
X84447048Y-97829714D01*
X84542286Y-97877333D01*
X84589905Y-97972571D01*
X84589905Y-98496381D01*
X84828000Y-98591619D02*
X85589905Y-98591619D01*
X86113715Y-97496381D02*
X86113715Y-98210667D01*
X86066095Y-98353524D01*
X85970857Y-98448762D01*
X85828000Y-98496381D01*
X85732762Y-98496381D01*
X86542286Y-98448762D02*
X86685143Y-98496381D01*
X86923239Y-98496381D01*
X87018477Y-98448762D01*
X87066096Y-98401143D01*
X87113715Y-98305905D01*
X87113715Y-98210667D01*
X87066096Y-98115429D01*
X87018477Y-98067810D01*
X86923239Y-98020190D01*
X86732762Y-97972571D01*
X86637524Y-97924952D01*
X86589905Y-97877333D01*
X86542286Y-97782095D01*
X86542286Y-97686857D01*
X86589905Y-97591619D01*
X86637524Y-97544000D01*
X86732762Y-97496381D01*
X86970858Y-97496381D01*
X87113715Y-97544000D01*
X87399429Y-97496381D02*
X87970858Y-97496381D01*
X87685143Y-98496381D02*
X87685143Y-97496381D01*
X49728381Y-79914286D02*
X48728381Y-79914286D01*
X49442667Y-79580952D01*
X48728381Y-79247619D01*
X49728381Y-79247619D01*
X49633143Y-78200000D02*
X49680762Y-78247619D01*
X49728381Y-78390476D01*
X49728381Y-78485714D01*
X49680762Y-78628572D01*
X49585524Y-78723810D01*
X49490286Y-78771429D01*
X49299810Y-78819048D01*
X49156952Y-78819048D01*
X48966476Y-78771429D01*
X48871238Y-78723810D01*
X48776000Y-78628572D01*
X48728381Y-78485714D01*
X48728381Y-78390476D01*
X48776000Y-78247619D01*
X48823619Y-78200000D01*
X49728381Y-77771429D02*
X48728381Y-77771429D01*
X48728381Y-77390476D01*
X48776000Y-77295238D01*
X48823619Y-77247619D01*
X48918857Y-77200000D01*
X49061714Y-77200000D01*
X49156952Y-77247619D01*
X49204571Y-77295238D01*
X49252190Y-77390476D01*
X49252190Y-77771429D01*
X48823619Y-76819048D02*
X48776000Y-76771429D01*
X48728381Y-76676191D01*
X48728381Y-76438095D01*
X48776000Y-76342857D01*
X48823619Y-76295238D01*
X48918857Y-76247619D01*
X49014095Y-76247619D01*
X49156952Y-76295238D01*
X49728381Y-76866667D01*
X49728381Y-76247619D01*
X48728381Y-75914286D02*
X48728381Y-75295238D01*
X49109333Y-75628572D01*
X49109333Y-75485714D01*
X49156952Y-75390476D01*
X49204571Y-75342857D01*
X49299810Y-75295238D01*
X49537905Y-75295238D01*
X49633143Y-75342857D01*
X49680762Y-75390476D01*
X49728381Y-75485714D01*
X49728381Y-75771429D01*
X49680762Y-75866667D01*
X49633143Y-75914286D01*
X48728381Y-74676191D02*
X48728381Y-74580952D01*
X48776000Y-74485714D01*
X48823619Y-74438095D01*
X48918857Y-74390476D01*
X49109333Y-74342857D01*
X49347429Y-74342857D01*
X49537905Y-74390476D01*
X49633143Y-74438095D01*
X49680762Y-74485714D01*
X49728381Y-74580952D01*
X49728381Y-74676191D01*
X49680762Y-74771429D01*
X49633143Y-74819048D01*
X49537905Y-74866667D01*
X49347429Y-74914286D01*
X49109333Y-74914286D01*
X48918857Y-74866667D01*
X48823619Y-74819048D01*
X48776000Y-74771429D01*
X48728381Y-74676191D01*
X49728381Y-73390476D02*
X49728381Y-73961905D01*
X49728381Y-73676191D02*
X48728381Y-73676191D01*
X48871238Y-73771429D01*
X48966476Y-73866667D01*
X49014095Y-73961905D01*
X48728381Y-73057143D02*
X48728381Y-72390476D01*
X49728381Y-72819048D01*
X82137524Y-79954381D02*
X81804190Y-79478190D01*
X81566095Y-79954381D02*
X81566095Y-78954381D01*
X81947048Y-78954381D01*
X82042286Y-79002000D01*
X82089905Y-79049619D01*
X82137524Y-79144857D01*
X82137524Y-79287714D01*
X82089905Y-79382952D01*
X82042286Y-79430571D01*
X81947048Y-79478190D01*
X81566095Y-79478190D01*
X82947048Y-79906762D02*
X82851810Y-79954381D01*
X82661333Y-79954381D01*
X82566095Y-79906762D01*
X82518476Y-79811524D01*
X82518476Y-79430571D01*
X82566095Y-79335333D01*
X82661333Y-79287714D01*
X82851810Y-79287714D01*
X82947048Y-79335333D01*
X82994667Y-79430571D01*
X82994667Y-79525810D01*
X82518476Y-79621048D01*
X83851810Y-79954381D02*
X83851810Y-78954381D01*
X83851810Y-79906762D02*
X83756572Y-79954381D01*
X83566095Y-79954381D01*
X83470857Y-79906762D01*
X83423238Y-79859143D01*
X83375619Y-79763905D01*
X83375619Y-79478190D01*
X83423238Y-79382952D01*
X83470857Y-79335333D01*
X83566095Y-79287714D01*
X83756572Y-79287714D01*
X83851810Y-79335333D01*
X84089905Y-80049619D02*
X84851810Y-80049619D01*
X85375620Y-78954381D02*
X85375620Y-79668667D01*
X85328000Y-79811524D01*
X85232762Y-79906762D01*
X85089905Y-79954381D01*
X84994667Y-79954381D01*
X85804191Y-79906762D02*
X85947048Y-79954381D01*
X86185144Y-79954381D01*
X86280382Y-79906762D01*
X86328001Y-79859143D01*
X86375620Y-79763905D01*
X86375620Y-79668667D01*
X86328001Y-79573429D01*
X86280382Y-79525810D01*
X86185144Y-79478190D01*
X85994667Y-79430571D01*
X85899429Y-79382952D01*
X85851810Y-79335333D01*
X85804191Y-79240095D01*
X85804191Y-79144857D01*
X85851810Y-79049619D01*
X85899429Y-79002000D01*
X85994667Y-78954381D01*
X86232763Y-78954381D01*
X86375620Y-79002000D01*
X86661334Y-78954381D02*
X87232763Y-78954381D01*
X86947048Y-79954381D02*
X86947048Y-78954381D01*
X70866357Y-82430881D02*
X70533023Y-81954690D01*
X70294928Y-82430881D02*
X70294928Y-81430881D01*
X70675881Y-81430881D01*
X70771119Y-81478500D01*
X70818738Y-81526119D01*
X70866357Y-81621357D01*
X70866357Y-81764214D01*
X70818738Y-81859452D01*
X70771119Y-81907071D01*
X70675881Y-81954690D01*
X70294928Y-81954690D01*
X71675881Y-82383262D02*
X71580643Y-82430881D01*
X71390166Y-82430881D01*
X71294928Y-82383262D01*
X71247309Y-82288024D01*
X71247309Y-81907071D01*
X71294928Y-81811833D01*
X71390166Y-81764214D01*
X71580643Y-81764214D01*
X71675881Y-81811833D01*
X71723500Y-81907071D01*
X71723500Y-82002310D01*
X71247309Y-82097548D01*
X72104452Y-82383262D02*
X72199690Y-82430881D01*
X72390166Y-82430881D01*
X72485405Y-82383262D01*
X72533024Y-82288024D01*
X72533024Y-82240405D01*
X72485405Y-82145167D01*
X72390166Y-82097548D01*
X72247309Y-82097548D01*
X72152071Y-82049929D01*
X72104452Y-81954690D01*
X72104452Y-81907071D01*
X72152071Y-81811833D01*
X72247309Y-81764214D01*
X72390166Y-81764214D01*
X72485405Y-81811833D01*
X73342548Y-82383262D02*
X73247310Y-82430881D01*
X73056833Y-82430881D01*
X72961595Y-82383262D01*
X72913976Y-82288024D01*
X72913976Y-81907071D01*
X72961595Y-81811833D01*
X73056833Y-81764214D01*
X73247310Y-81764214D01*
X73342548Y-81811833D01*
X73390167Y-81907071D01*
X73390167Y-82002310D01*
X72913976Y-82097548D01*
X73675881Y-81764214D02*
X74056833Y-81764214D01*
X73818738Y-81430881D02*
X73818738Y-82288024D01*
X73866357Y-82383262D01*
X73961595Y-82430881D01*
X74056833Y-82430881D01*
X74152072Y-82526119D02*
X74913977Y-82526119D01*
X75437787Y-81430881D02*
X75437787Y-82145167D01*
X75390167Y-82288024D01*
X75294929Y-82383262D01*
X75152072Y-82430881D01*
X75056834Y-82430881D01*
X75866358Y-82383262D02*
X76009215Y-82430881D01*
X76247311Y-82430881D01*
X76342549Y-82383262D01*
X76390168Y-82335643D01*
X76437787Y-82240405D01*
X76437787Y-82145167D01*
X76390168Y-82049929D01*
X76342549Y-82002310D01*
X76247311Y-81954690D01*
X76056834Y-81907071D01*
X75961596Y-81859452D01*
X75913977Y-81811833D01*
X75866358Y-81716595D01*
X75866358Y-81621357D01*
X75913977Y-81526119D01*
X75961596Y-81478500D01*
X76056834Y-81430881D01*
X76294930Y-81430881D01*
X76437787Y-81478500D01*
X76723501Y-81430881D02*
X77294930Y-81430881D01*
X77009215Y-82430881D02*
X77009215Y-81430881D01*
X82399429Y-88574571D02*
X82542286Y-88622190D01*
X82589905Y-88669810D01*
X82637524Y-88765048D01*
X82637524Y-88907905D01*
X82589905Y-89003143D01*
X82542286Y-89050762D01*
X82447048Y-89098381D01*
X82066095Y-89098381D01*
X82066095Y-88098381D01*
X82399429Y-88098381D01*
X82494667Y-88146000D01*
X82542286Y-88193619D01*
X82589905Y-88288857D01*
X82589905Y-88384095D01*
X82542286Y-88479333D01*
X82494667Y-88526952D01*
X82399429Y-88574571D01*
X82066095Y-88574571D01*
X83494667Y-88431714D02*
X83494667Y-89098381D01*
X83066095Y-88431714D02*
X83066095Y-88955524D01*
X83113714Y-89050762D01*
X83208952Y-89098381D01*
X83351810Y-89098381D01*
X83447048Y-89050762D01*
X83494667Y-89003143D01*
X83875619Y-88431714D02*
X84399429Y-88431714D01*
X83875619Y-89098381D01*
X84399429Y-89098381D01*
X84685143Y-88431714D02*
X85208953Y-88431714D01*
X84685143Y-89098381D01*
X85208953Y-89098381D01*
X85970858Y-89050762D02*
X85875620Y-89098381D01*
X85685143Y-89098381D01*
X85589905Y-89050762D01*
X85542286Y-88955524D01*
X85542286Y-88574571D01*
X85589905Y-88479333D01*
X85685143Y-88431714D01*
X85875620Y-88431714D01*
X85970858Y-88479333D01*
X86018477Y-88574571D01*
X86018477Y-88669810D01*
X85542286Y-88765048D01*
X86447048Y-89098381D02*
X86447048Y-88431714D01*
X86447048Y-88622190D02*
X86494667Y-88526952D01*
X86542286Y-88479333D01*
X86637524Y-88431714D01*
X86732763Y-88431714D01*
X36060191Y-60904381D02*
X35726857Y-60428190D01*
X35488762Y-60904381D02*
X35488762Y-59904381D01*
X35869715Y-59904381D01*
X35964953Y-59952000D01*
X36012572Y-59999619D01*
X36060191Y-60094857D01*
X36060191Y-60237714D01*
X36012572Y-60332952D01*
X35964953Y-60380571D01*
X35869715Y-60428190D01*
X35488762Y-60428190D01*
X36774477Y-59904381D02*
X36774477Y-60618667D01*
X36726857Y-60761524D01*
X36631619Y-60856762D01*
X36488762Y-60904381D01*
X36393524Y-60904381D01*
X37679239Y-60237714D02*
X37679239Y-60904381D01*
X37441143Y-59856762D02*
X37203048Y-60571048D01*
X37822096Y-60571048D01*
X38679239Y-59904381D02*
X38203048Y-59904381D01*
X38155429Y-60380571D01*
X38203048Y-60332952D01*
X38298286Y-60285333D01*
X38536382Y-60285333D01*
X38631620Y-60332952D01*
X38679239Y-60380571D01*
X38726858Y-60475810D01*
X38726858Y-60713905D01*
X38679239Y-60809143D01*
X38631620Y-60856762D01*
X38536382Y-60904381D01*
X38298286Y-60904381D01*
X38203048Y-60856762D01*
X38155429Y-60809143D01*
X35144191Y-94196381D02*
X34810857Y-93720190D01*
X34572762Y-94196381D02*
X34572762Y-93196381D01*
X34953715Y-93196381D01*
X35048953Y-93244000D01*
X35096572Y-93291619D01*
X35144191Y-93386857D01*
X35144191Y-93529714D01*
X35096572Y-93624952D01*
X35048953Y-93672571D01*
X34953715Y-93720190D01*
X34572762Y-93720190D01*
X35858477Y-93196381D02*
X35858477Y-93910667D01*
X35810857Y-94053524D01*
X35715619Y-94148762D01*
X35572762Y-94196381D01*
X35477524Y-94196381D01*
X36763239Y-93529714D02*
X36763239Y-94196381D01*
X36525143Y-93148762D02*
X36287048Y-93863048D01*
X36906096Y-93863048D01*
X37763239Y-93196381D02*
X37287048Y-93196381D01*
X37239429Y-93672571D01*
X37287048Y-93624952D01*
X37382286Y-93577333D01*
X37620382Y-93577333D01*
X37715620Y-93624952D01*
X37763239Y-93672571D01*
X37810858Y-93767810D01*
X37810858Y-94005905D01*
X37763239Y-94101143D01*
X37715620Y-94148762D01*
X37620382Y-94196381D01*
X37382286Y-94196381D01*
X37287048Y-94148762D01*
X37239429Y-94101143D01*
M02*
