G04 #@! TF.FileFunction,Copper,L2,Bot,Signal*
%FSLAX46Y46*%
G04 Gerber Fmt 4.6, Leading zero omitted, Abs format (unit mm)*
G04 Created by KiCad (PCBNEW 4.0.7) date 09/23/18 17:07:03*
%MOMM*%
%LPD*%
G01*
G04 APERTURE LIST*
%ADD10C,0.100000*%
%ADD11O,1.727200X1.727200*%
%ADD12C,1.600000*%
%ADD13O,1.600000X1.600000*%
%ADD14R,1.750000X1.750000*%
%ADD15C,1.750000*%
%ADD16R,1.600000X1.600000*%
%ADD17C,2.499360*%
%ADD18C,3.650000*%
%ADD19R,1.500000X1.500000*%
%ADD20C,1.500000*%
%ADD21C,0.250000*%
%ADD22C,0.254000*%
G04 APERTURE END LIST*
D10*
D11*
X83820000Y-112776000D03*
X78740000Y-112776000D03*
X76200000Y-112776000D03*
X73660000Y-112776000D03*
X71120000Y-112776000D03*
X68580000Y-112776000D03*
X66040000Y-112776000D03*
X63500000Y-112776000D03*
X96520000Y-64516000D03*
X93980000Y-64516000D03*
X91440000Y-64516000D03*
X88900000Y-64516000D03*
X86360000Y-64516000D03*
X83820000Y-64516000D03*
X81280000Y-64516000D03*
X78740000Y-64516000D03*
X59436000Y-64516000D03*
X74676000Y-64516000D03*
X72136000Y-64516000D03*
X69596000Y-64516000D03*
X51816000Y-64516000D03*
X54356000Y-64516000D03*
X56896000Y-64516000D03*
X61976000Y-64516000D03*
X64516000Y-64516000D03*
X67056000Y-64516000D03*
X60960000Y-112776000D03*
X86360000Y-112776000D03*
X88900000Y-112776000D03*
X91440000Y-112776000D03*
X93980000Y-112776000D03*
X96520000Y-112776000D03*
D12*
X72390000Y-75692000D03*
D13*
X69850000Y-75692000D03*
D12*
X72390000Y-102870000D03*
D13*
X69850000Y-102870000D03*
D12*
X72390000Y-88773000D03*
D13*
X69850000Y-88773000D03*
D14*
X89408000Y-102870000D03*
D15*
X86908000Y-102870000D03*
X84408000Y-102870000D03*
X81908000Y-102870000D03*
X79408000Y-102870000D03*
D16*
X59182000Y-106870500D03*
D13*
X51562000Y-73850500D03*
X59182000Y-104330500D03*
X51562000Y-76390500D03*
X59182000Y-101790500D03*
X51562000Y-78930500D03*
X59182000Y-99250500D03*
X51562000Y-81470500D03*
X59182000Y-96710500D03*
X51562000Y-84010500D03*
X59182000Y-94170500D03*
X51562000Y-86550500D03*
X59182000Y-91630500D03*
X51562000Y-89090500D03*
X59182000Y-89090500D03*
X51562000Y-91630500D03*
X59182000Y-86550500D03*
X51562000Y-94170500D03*
X59182000Y-84010500D03*
X51562000Y-96710500D03*
X59182000Y-81470500D03*
X51562000Y-99250500D03*
X59182000Y-78930500D03*
X51562000Y-101790500D03*
X59182000Y-76390500D03*
X51562000Y-104330500D03*
X59182000Y-73850500D03*
X51562000Y-106870500D03*
D14*
X89408000Y-75692000D03*
D15*
X86908000Y-75692000D03*
X84408000Y-75692000D03*
X81908000Y-75692000D03*
X79408000Y-75692000D03*
D14*
X64516000Y-81534000D03*
D15*
X67016000Y-81534000D03*
D17*
X79248000Y-88773000D03*
X89408000Y-88773000D03*
D18*
X36068000Y-66768000D03*
X36068000Y-54898000D03*
D19*
X42418000Y-56388000D03*
D20*
X44958000Y-57658000D03*
X42418000Y-58928000D03*
X44958000Y-60198000D03*
X42418000Y-61468000D03*
X44958000Y-62738000D03*
X42418000Y-64008000D03*
X44958000Y-65278000D03*
D18*
X36068000Y-99534000D03*
X36068000Y-87664000D03*
D19*
X42418000Y-89154000D03*
D20*
X44958000Y-90424000D03*
X42418000Y-91694000D03*
X44958000Y-92964000D03*
X42418000Y-94234000D03*
X44958000Y-95504000D03*
X42418000Y-96774000D03*
X44958000Y-98044000D03*
D21*
X89408000Y-88773000D02*
X89408000Y-83566000D01*
X85090000Y-70866000D02*
X78740000Y-64516000D01*
X92456000Y-70866000D02*
X85090000Y-70866000D01*
X93218000Y-71628000D02*
X92456000Y-70866000D01*
X93218000Y-79756000D02*
X93218000Y-71628000D01*
X89408000Y-83566000D02*
X93218000Y-79756000D01*
D22*
G36*
X95123000Y-63537103D02*
X95069029Y-63456330D01*
X94582848Y-63131474D01*
X94009359Y-63017400D01*
X93950641Y-63017400D01*
X93377152Y-63131474D01*
X92890971Y-63456330D01*
X92710000Y-63727172D01*
X92529029Y-63456330D01*
X92042848Y-63131474D01*
X91469359Y-63017400D01*
X91410641Y-63017400D01*
X90837152Y-63131474D01*
X90350971Y-63456330D01*
X90170000Y-63727172D01*
X89989029Y-63456330D01*
X89502848Y-63131474D01*
X88929359Y-63017400D01*
X88870641Y-63017400D01*
X88297152Y-63131474D01*
X87810971Y-63456330D01*
X87630000Y-63727172D01*
X87449029Y-63456330D01*
X86962848Y-63131474D01*
X86389359Y-63017400D01*
X86330641Y-63017400D01*
X85757152Y-63131474D01*
X85270971Y-63456330D01*
X85090000Y-63727172D01*
X84909029Y-63456330D01*
X84422848Y-63131474D01*
X83849359Y-63017400D01*
X83790641Y-63017400D01*
X83217152Y-63131474D01*
X82730971Y-63456330D01*
X82550000Y-63727172D01*
X82369029Y-63456330D01*
X81882848Y-63131474D01*
X81309359Y-63017400D01*
X81250641Y-63017400D01*
X80677152Y-63131474D01*
X80190971Y-63456330D01*
X80010000Y-63727172D01*
X79829029Y-63456330D01*
X79342848Y-63131474D01*
X78769359Y-63017400D01*
X78710641Y-63017400D01*
X78137152Y-63131474D01*
X77650971Y-63456330D01*
X77326115Y-63942511D01*
X77212041Y-64516000D01*
X77326115Y-65089489D01*
X77650971Y-65575670D01*
X78137152Y-65900526D01*
X78710641Y-66014600D01*
X78769359Y-66014600D01*
X79098356Y-65949158D01*
X84552599Y-71403401D01*
X84799161Y-71568148D01*
X85090000Y-71626000D01*
X92141198Y-71626000D01*
X92458000Y-71942802D01*
X92458000Y-79441198D01*
X88870599Y-83028599D01*
X88705852Y-83275161D01*
X88648000Y-83566000D01*
X88648000Y-87047799D01*
X88341809Y-87174314D01*
X87811178Y-87704021D01*
X87523648Y-88396469D01*
X87522994Y-89146241D01*
X87809314Y-89839191D01*
X88339021Y-90369822D01*
X89031469Y-90657352D01*
X89781241Y-90658006D01*
X90474191Y-90371686D01*
X91004822Y-89841979D01*
X91292352Y-89149531D01*
X91293006Y-88399759D01*
X91006686Y-87706809D01*
X90476979Y-87176178D01*
X90168000Y-87047879D01*
X90168000Y-83880802D01*
X93755401Y-80293401D01*
X93920148Y-80046839D01*
X93978000Y-79756000D01*
X93978000Y-71628000D01*
X93920148Y-71337161D01*
X93755401Y-71090599D01*
X92993401Y-70328599D01*
X92746839Y-70163852D01*
X92456000Y-70106000D01*
X85404802Y-70106000D01*
X81312731Y-66013929D01*
X81882848Y-65900526D01*
X82369029Y-65575670D01*
X82550000Y-65304828D01*
X82730971Y-65575670D01*
X83217152Y-65900526D01*
X83790641Y-66014600D01*
X83849359Y-66014600D01*
X84422848Y-65900526D01*
X84909029Y-65575670D01*
X85090000Y-65304828D01*
X85270971Y-65575670D01*
X85757152Y-65900526D01*
X86330641Y-66014600D01*
X86389359Y-66014600D01*
X86962848Y-65900526D01*
X87449029Y-65575670D01*
X87630000Y-65304828D01*
X87810971Y-65575670D01*
X88297152Y-65900526D01*
X88870641Y-66014600D01*
X88929359Y-66014600D01*
X89502848Y-65900526D01*
X89989029Y-65575670D01*
X90170000Y-65304828D01*
X90350971Y-65575670D01*
X90837152Y-65900526D01*
X91410641Y-66014600D01*
X91469359Y-66014600D01*
X92042848Y-65900526D01*
X92529029Y-65575670D01*
X92710000Y-65304828D01*
X92890971Y-65575670D01*
X93377152Y-65900526D01*
X93950641Y-66014600D01*
X94009359Y-66014600D01*
X94582848Y-65900526D01*
X95069029Y-65575670D01*
X95123000Y-65494897D01*
X95123000Y-111797103D01*
X95069029Y-111716330D01*
X94582848Y-111391474D01*
X94009359Y-111277400D01*
X93950641Y-111277400D01*
X93377152Y-111391474D01*
X92890971Y-111716330D01*
X92710000Y-111987172D01*
X92529029Y-111716330D01*
X92042848Y-111391474D01*
X91469359Y-111277400D01*
X91410641Y-111277400D01*
X90837152Y-111391474D01*
X90350971Y-111716330D01*
X90170000Y-111987172D01*
X89989029Y-111716330D01*
X89502848Y-111391474D01*
X88929359Y-111277400D01*
X88870641Y-111277400D01*
X88297152Y-111391474D01*
X87810971Y-111716330D01*
X87630000Y-111987172D01*
X87449029Y-111716330D01*
X86962848Y-111391474D01*
X86389359Y-111277400D01*
X86330641Y-111277400D01*
X85757152Y-111391474D01*
X85270971Y-111716330D01*
X85090000Y-111987172D01*
X84909029Y-111716330D01*
X84422848Y-111391474D01*
X83849359Y-111277400D01*
X83790641Y-111277400D01*
X83217152Y-111391474D01*
X82730971Y-111716330D01*
X82406115Y-112202511D01*
X82292041Y-112776000D01*
X82406115Y-113349489D01*
X82730971Y-113835670D01*
X83217152Y-114160526D01*
X83279863Y-114173000D01*
X79280137Y-114173000D01*
X79342848Y-114160526D01*
X79829029Y-113835670D01*
X80153885Y-113349489D01*
X80267959Y-112776000D01*
X80153885Y-112202511D01*
X79829029Y-111716330D01*
X79342848Y-111391474D01*
X78769359Y-111277400D01*
X78710641Y-111277400D01*
X78137152Y-111391474D01*
X77650971Y-111716330D01*
X77470008Y-111987161D01*
X77088490Y-111569179D01*
X76559027Y-111321032D01*
X76327000Y-111441531D01*
X76327000Y-112649000D01*
X76347000Y-112649000D01*
X76347000Y-112903000D01*
X76327000Y-112903000D01*
X76327000Y-112923000D01*
X76073000Y-112923000D01*
X76073000Y-112903000D01*
X73787000Y-112903000D01*
X73787000Y-112923000D01*
X73533000Y-112923000D01*
X73533000Y-112903000D01*
X73513000Y-112903000D01*
X73513000Y-112649000D01*
X73533000Y-112649000D01*
X73533000Y-111441531D01*
X73787000Y-111441531D01*
X73787000Y-112649000D01*
X76073000Y-112649000D01*
X76073000Y-111441531D01*
X75840973Y-111321032D01*
X75311510Y-111569179D01*
X74930000Y-111987152D01*
X74548490Y-111569179D01*
X74019027Y-111321032D01*
X73787000Y-111441531D01*
X73533000Y-111441531D01*
X73300973Y-111321032D01*
X72771510Y-111569179D01*
X72389992Y-111987161D01*
X72209029Y-111716330D01*
X71722848Y-111391474D01*
X71149359Y-111277400D01*
X71090641Y-111277400D01*
X70517152Y-111391474D01*
X70030971Y-111716330D01*
X69850000Y-111987172D01*
X69669029Y-111716330D01*
X69182848Y-111391474D01*
X68609359Y-111277400D01*
X68550641Y-111277400D01*
X67977152Y-111391474D01*
X67490971Y-111716330D01*
X67310000Y-111987172D01*
X67129029Y-111716330D01*
X66642848Y-111391474D01*
X66069359Y-111277400D01*
X66010641Y-111277400D01*
X65437152Y-111391474D01*
X64950971Y-111716330D01*
X64770000Y-111987172D01*
X64589029Y-111716330D01*
X64102848Y-111391474D01*
X63529359Y-111277400D01*
X63470641Y-111277400D01*
X62897152Y-111391474D01*
X62410971Y-111716330D01*
X62230000Y-111987172D01*
X62049029Y-111716330D01*
X61562848Y-111391474D01*
X60989359Y-111277400D01*
X60930641Y-111277400D01*
X60357152Y-111391474D01*
X59870971Y-111716330D01*
X59546115Y-112202511D01*
X59432041Y-112776000D01*
X59546115Y-113349489D01*
X59870971Y-113835670D01*
X60357152Y-114160526D01*
X60419863Y-114173000D01*
X48754089Y-114173000D01*
X48883636Y-114043679D01*
X49224611Y-113222519D01*
X49225387Y-112333381D01*
X48885845Y-111511628D01*
X48257679Y-110882364D01*
X47436519Y-110541389D01*
X46547381Y-110540613D01*
X45725628Y-110880155D01*
X45096364Y-111508321D01*
X44755389Y-112329481D01*
X44754613Y-113218619D01*
X45094155Y-114040372D01*
X45226551Y-114173000D01*
X39497000Y-114173000D01*
X39497000Y-97745517D01*
X41626088Y-97745517D01*
X41694077Y-97986460D01*
X42213171Y-98171201D01*
X42763448Y-98143230D01*
X43141923Y-97986460D01*
X43209912Y-97745517D01*
X42418000Y-96953605D01*
X41626088Y-97745517D01*
X39497000Y-97745517D01*
X39497000Y-96569171D01*
X41020799Y-96569171D01*
X41048770Y-97119448D01*
X41205540Y-97497923D01*
X41446483Y-97565912D01*
X42238395Y-96774000D01*
X42597605Y-96774000D01*
X43389517Y-97565912D01*
X43630460Y-97497923D01*
X43815201Y-96978829D01*
X43787230Y-96428552D01*
X43630460Y-96050077D01*
X43389517Y-95982088D01*
X42597605Y-96774000D01*
X42238395Y-96774000D01*
X41446483Y-95982088D01*
X41205540Y-96050077D01*
X41020799Y-96569171D01*
X39497000Y-96569171D01*
X39497000Y-88404000D01*
X41020560Y-88404000D01*
X41020560Y-89904000D01*
X41064838Y-90139317D01*
X41203910Y-90355441D01*
X41416110Y-90500431D01*
X41613262Y-90540355D01*
X41244539Y-90908436D01*
X41033241Y-91417298D01*
X41032760Y-91968285D01*
X41243169Y-92477515D01*
X41632436Y-92867461D01*
X41864870Y-92963976D01*
X41634485Y-93059169D01*
X41244539Y-93448436D01*
X41033241Y-93957298D01*
X41032760Y-94508285D01*
X41243169Y-95017515D01*
X41632436Y-95407461D01*
X41848979Y-95497377D01*
X41694077Y-95561540D01*
X41626088Y-95802483D01*
X42418000Y-96594395D01*
X43209912Y-95802483D01*
X43141923Y-95561540D01*
X42975379Y-95502268D01*
X43201515Y-95408831D01*
X43591461Y-95019564D01*
X43802759Y-94510702D01*
X43803240Y-93959715D01*
X43592831Y-93450485D01*
X43203564Y-93060539D01*
X42971130Y-92964024D01*
X43201515Y-92868831D01*
X43591461Y-92479564D01*
X43802759Y-91970702D01*
X43803240Y-91419715D01*
X43592831Y-90910485D01*
X43223909Y-90540920D01*
X43403317Y-90507162D01*
X43573022Y-90397960D01*
X43572760Y-90698285D01*
X43783169Y-91207515D01*
X44172436Y-91597461D01*
X44404870Y-91693976D01*
X44174485Y-91789169D01*
X43784539Y-92178436D01*
X43573241Y-92687298D01*
X43572760Y-93238285D01*
X43783169Y-93747515D01*
X44172436Y-94137461D01*
X44404870Y-94233976D01*
X44174485Y-94329169D01*
X43784539Y-94718436D01*
X43573241Y-95227298D01*
X43572760Y-95778285D01*
X43783169Y-96287515D01*
X44172436Y-96677461D01*
X44404870Y-96773976D01*
X44174485Y-96869169D01*
X43784539Y-97258436D01*
X43573241Y-97767298D01*
X43572760Y-98318285D01*
X43783169Y-98827515D01*
X44172436Y-99217461D01*
X44681298Y-99428759D01*
X45232285Y-99429240D01*
X45741515Y-99218831D01*
X46131461Y-98829564D01*
X46342759Y-98320702D01*
X46343240Y-97769715D01*
X46132831Y-97260485D01*
X45743564Y-96870539D01*
X45511130Y-96774024D01*
X45741515Y-96678831D01*
X46131461Y-96289564D01*
X46342759Y-95780702D01*
X46343240Y-95229715D01*
X46132831Y-94720485D01*
X45743564Y-94330539D01*
X45511130Y-94234024D01*
X45741515Y-94138831D01*
X46131461Y-93749564D01*
X46342759Y-93240702D01*
X46343240Y-92689715D01*
X46132831Y-92180485D01*
X45743564Y-91790539D01*
X45511130Y-91694024D01*
X45741515Y-91598831D01*
X46131461Y-91209564D01*
X46342759Y-90700702D01*
X46343240Y-90149715D01*
X46132831Y-89640485D01*
X45743564Y-89250539D01*
X45234702Y-89039241D01*
X44683715Y-89038760D01*
X44174485Y-89249169D01*
X43815440Y-89607589D01*
X43815440Y-88404000D01*
X43771162Y-88168683D01*
X43632090Y-87952559D01*
X43419890Y-87807569D01*
X43168000Y-87756560D01*
X41668000Y-87756560D01*
X41432683Y-87800838D01*
X41216559Y-87939910D01*
X41071569Y-88152110D01*
X41020560Y-88404000D01*
X39497000Y-88404000D01*
X39497000Y-81470500D01*
X50098887Y-81470500D01*
X50208120Y-82019651D01*
X50519189Y-82485198D01*
X50901275Y-82740500D01*
X50519189Y-82995802D01*
X50208120Y-83461349D01*
X50098887Y-84010500D01*
X50208120Y-84559651D01*
X50519189Y-85025198D01*
X50901275Y-85280500D01*
X50519189Y-85535802D01*
X50208120Y-86001349D01*
X50098887Y-86550500D01*
X50208120Y-87099651D01*
X50519189Y-87565198D01*
X50901275Y-87820500D01*
X50519189Y-88075802D01*
X50208120Y-88541349D01*
X50098887Y-89090500D01*
X50208120Y-89639651D01*
X50519189Y-90105198D01*
X50901275Y-90360500D01*
X50519189Y-90615802D01*
X50208120Y-91081349D01*
X50098887Y-91630500D01*
X50208120Y-92179651D01*
X50519189Y-92645198D01*
X50901275Y-92900500D01*
X50519189Y-93155802D01*
X50208120Y-93621349D01*
X50098887Y-94170500D01*
X50208120Y-94719651D01*
X50519189Y-95185198D01*
X50901275Y-95440500D01*
X50519189Y-95695802D01*
X50208120Y-96161349D01*
X50098887Y-96710500D01*
X50208120Y-97259651D01*
X50519189Y-97725198D01*
X50901275Y-97980500D01*
X50519189Y-98235802D01*
X50208120Y-98701349D01*
X50098887Y-99250500D01*
X50208120Y-99799651D01*
X50519189Y-100265198D01*
X50901275Y-100520500D01*
X50519189Y-100775802D01*
X50208120Y-101241349D01*
X50098887Y-101790500D01*
X50208120Y-102339651D01*
X50519189Y-102805198D01*
X50901275Y-103060500D01*
X50519189Y-103315802D01*
X50208120Y-103781349D01*
X50098887Y-104330500D01*
X50208120Y-104879651D01*
X50519189Y-105345198D01*
X50901275Y-105600500D01*
X50519189Y-105855802D01*
X50208120Y-106321349D01*
X50098887Y-106870500D01*
X50208120Y-107419651D01*
X50519189Y-107885198D01*
X50984736Y-108196267D01*
X51533887Y-108305500D01*
X51590113Y-108305500D01*
X52139264Y-108196267D01*
X52604811Y-107885198D01*
X52915880Y-107419651D01*
X53025113Y-106870500D01*
X52915880Y-106321349D01*
X52604811Y-105855802D01*
X52222725Y-105600500D01*
X52604811Y-105345198D01*
X52915880Y-104879651D01*
X53025113Y-104330500D01*
X52915880Y-103781349D01*
X52604811Y-103315802D01*
X52222725Y-103060500D01*
X52604811Y-102805198D01*
X52915880Y-102339651D01*
X53025113Y-101790500D01*
X52915880Y-101241349D01*
X52604811Y-100775802D01*
X52222725Y-100520500D01*
X52604811Y-100265198D01*
X52915880Y-99799651D01*
X53025113Y-99250500D01*
X52915880Y-98701349D01*
X52604811Y-98235802D01*
X52222725Y-97980500D01*
X52604811Y-97725198D01*
X52915880Y-97259651D01*
X53025113Y-96710500D01*
X52915880Y-96161349D01*
X52604811Y-95695802D01*
X52222725Y-95440500D01*
X52604811Y-95185198D01*
X52915880Y-94719651D01*
X53025113Y-94170500D01*
X52915880Y-93621349D01*
X52604811Y-93155802D01*
X52222725Y-92900500D01*
X52604811Y-92645198D01*
X52915880Y-92179651D01*
X53025113Y-91630500D01*
X52915880Y-91081349D01*
X52604811Y-90615802D01*
X52222725Y-90360500D01*
X52604811Y-90105198D01*
X52915880Y-89639651D01*
X53025113Y-89090500D01*
X52915880Y-88541349D01*
X52604811Y-88075802D01*
X52222725Y-87820500D01*
X52604811Y-87565198D01*
X52915880Y-87099651D01*
X53025113Y-86550500D01*
X57718887Y-86550500D01*
X57828120Y-87099651D01*
X58139189Y-87565198D01*
X58521275Y-87820500D01*
X58139189Y-88075802D01*
X57828120Y-88541349D01*
X57718887Y-89090500D01*
X57828120Y-89639651D01*
X58139189Y-90105198D01*
X58521275Y-90360500D01*
X58139189Y-90615802D01*
X57828120Y-91081349D01*
X57718887Y-91630500D01*
X57828120Y-92179651D01*
X58139189Y-92645198D01*
X58521275Y-92900500D01*
X58139189Y-93155802D01*
X57828120Y-93621349D01*
X57718887Y-94170500D01*
X57828120Y-94719651D01*
X58139189Y-95185198D01*
X58521275Y-95440500D01*
X58139189Y-95695802D01*
X57828120Y-96161349D01*
X57718887Y-96710500D01*
X57828120Y-97259651D01*
X58139189Y-97725198D01*
X58521275Y-97980500D01*
X58139189Y-98235802D01*
X57828120Y-98701349D01*
X57718887Y-99250500D01*
X57828120Y-99799651D01*
X58139189Y-100265198D01*
X58521275Y-100520500D01*
X58139189Y-100775802D01*
X57828120Y-101241349D01*
X57718887Y-101790500D01*
X57828120Y-102339651D01*
X58139189Y-102805198D01*
X58521275Y-103060500D01*
X58139189Y-103315802D01*
X57828120Y-103781349D01*
X57718887Y-104330500D01*
X57828120Y-104879651D01*
X58139189Y-105345198D01*
X58283465Y-105441601D01*
X58146683Y-105467338D01*
X57930559Y-105606410D01*
X57785569Y-105818610D01*
X57734560Y-106070500D01*
X57734560Y-107670500D01*
X57778838Y-107905817D01*
X57917910Y-108121941D01*
X58130110Y-108266931D01*
X58382000Y-108317940D01*
X59982000Y-108317940D01*
X60217317Y-108273662D01*
X60433441Y-108134590D01*
X60578431Y-107922390D01*
X60629440Y-107670500D01*
X60629440Y-106070500D01*
X60585162Y-105835183D01*
X60446090Y-105619059D01*
X60233890Y-105474069D01*
X60078911Y-105442685D01*
X60224811Y-105345198D01*
X60535880Y-104879651D01*
X60645113Y-104330500D01*
X60535880Y-103781349D01*
X60224811Y-103315802D01*
X60079996Y-103219039D01*
X68458096Y-103219039D01*
X68618959Y-103607423D01*
X68994866Y-104022389D01*
X69500959Y-104261914D01*
X69723000Y-104140629D01*
X69723000Y-102997000D01*
X68580085Y-102997000D01*
X68458096Y-103219039D01*
X60079996Y-103219039D01*
X59842725Y-103060500D01*
X60224811Y-102805198D01*
X60414732Y-102520961D01*
X68458096Y-102520961D01*
X68580085Y-102743000D01*
X69723000Y-102743000D01*
X69723000Y-101599371D01*
X69977000Y-101599371D01*
X69977000Y-102743000D01*
X69997000Y-102743000D01*
X69997000Y-102997000D01*
X69977000Y-102997000D01*
X69977000Y-104140629D01*
X70199041Y-104261914D01*
X70705134Y-104022389D01*
X71081041Y-103607423D01*
X71111570Y-103533715D01*
X71172757Y-103681800D01*
X71576077Y-104085824D01*
X72103309Y-104304750D01*
X72674187Y-104305248D01*
X73201800Y-104087243D01*
X73605824Y-103683923D01*
X73819622Y-103169040D01*
X77897738Y-103169040D01*
X78127138Y-103724229D01*
X78551537Y-104149370D01*
X79106325Y-104379738D01*
X79707040Y-104380262D01*
X80262229Y-104150862D01*
X80658318Y-103755464D01*
X81051537Y-104149370D01*
X81606325Y-104379738D01*
X82207040Y-104380262D01*
X82762229Y-104150862D01*
X83158318Y-103755464D01*
X83551537Y-104149370D01*
X84106325Y-104379738D01*
X84707040Y-104380262D01*
X85262229Y-104150862D01*
X85658318Y-103755464D01*
X86051537Y-104149370D01*
X86606325Y-104379738D01*
X87207040Y-104380262D01*
X87762229Y-104150862D01*
X87931103Y-103982283D01*
X88068910Y-104196441D01*
X88281110Y-104341431D01*
X88533000Y-104392440D01*
X90283000Y-104392440D01*
X90518317Y-104348162D01*
X90734441Y-104209090D01*
X90879431Y-103996890D01*
X90930440Y-103745000D01*
X90930440Y-101995000D01*
X90886162Y-101759683D01*
X90747090Y-101543559D01*
X90534890Y-101398569D01*
X90283000Y-101347560D01*
X88533000Y-101347560D01*
X88297683Y-101391838D01*
X88081559Y-101530910D01*
X87936569Y-101743110D01*
X87933214Y-101759676D01*
X87764463Y-101590630D01*
X87209675Y-101360262D01*
X86608960Y-101359738D01*
X86053771Y-101589138D01*
X85657682Y-101984536D01*
X85264463Y-101590630D01*
X84709675Y-101360262D01*
X84108960Y-101359738D01*
X83553771Y-101589138D01*
X83157682Y-101984536D01*
X82764463Y-101590630D01*
X82209675Y-101360262D01*
X81608960Y-101359738D01*
X81053771Y-101589138D01*
X80657682Y-101984536D01*
X80264463Y-101590630D01*
X79709675Y-101360262D01*
X79108960Y-101359738D01*
X78553771Y-101589138D01*
X78128630Y-102013537D01*
X77898262Y-102568325D01*
X77897738Y-103169040D01*
X73819622Y-103169040D01*
X73824750Y-103156691D01*
X73825248Y-102585813D01*
X73607243Y-102058200D01*
X73203923Y-101654176D01*
X72676691Y-101435250D01*
X72105813Y-101434752D01*
X71578200Y-101652757D01*
X71174176Y-102056077D01*
X71111687Y-102206568D01*
X71081041Y-102132577D01*
X70705134Y-101717611D01*
X70199041Y-101478086D01*
X69977000Y-101599371D01*
X69723000Y-101599371D01*
X69500959Y-101478086D01*
X68994866Y-101717611D01*
X68618959Y-102132577D01*
X68458096Y-102520961D01*
X60414732Y-102520961D01*
X60535880Y-102339651D01*
X60645113Y-101790500D01*
X60535880Y-101241349D01*
X60224811Y-100775802D01*
X59842725Y-100520500D01*
X60224811Y-100265198D01*
X60535880Y-99799651D01*
X60645113Y-99250500D01*
X60535880Y-98701349D01*
X60224811Y-98235802D01*
X59842725Y-97980500D01*
X60224811Y-97725198D01*
X60535880Y-97259651D01*
X60645113Y-96710500D01*
X60535880Y-96161349D01*
X60224811Y-95695802D01*
X59842725Y-95440500D01*
X60224811Y-95185198D01*
X60535880Y-94719651D01*
X60645113Y-94170500D01*
X60535880Y-93621349D01*
X60224811Y-93155802D01*
X59842725Y-92900500D01*
X60224811Y-92645198D01*
X60535880Y-92179651D01*
X60645113Y-91630500D01*
X60535880Y-91081349D01*
X60224811Y-90615802D01*
X59842725Y-90360500D01*
X60224811Y-90105198D01*
X60535880Y-89639651D01*
X60638839Y-89122039D01*
X68458096Y-89122039D01*
X68618959Y-89510423D01*
X68994866Y-89925389D01*
X69500959Y-90164914D01*
X69723000Y-90043629D01*
X69723000Y-88900000D01*
X68580085Y-88900000D01*
X68458096Y-89122039D01*
X60638839Y-89122039D01*
X60645113Y-89090500D01*
X60535880Y-88541349D01*
X60457444Y-88423961D01*
X68458096Y-88423961D01*
X68580085Y-88646000D01*
X69723000Y-88646000D01*
X69723000Y-87502371D01*
X69977000Y-87502371D01*
X69977000Y-88646000D01*
X69997000Y-88646000D01*
X69997000Y-88900000D01*
X69977000Y-88900000D01*
X69977000Y-90043629D01*
X70199041Y-90164914D01*
X70705134Y-89925389D01*
X71081041Y-89510423D01*
X71111570Y-89436715D01*
X71172757Y-89584800D01*
X71576077Y-89988824D01*
X72103309Y-90207750D01*
X72674187Y-90208248D01*
X73201800Y-89990243D01*
X73605824Y-89586923D01*
X73788811Y-89146241D01*
X77362994Y-89146241D01*
X77649314Y-89839191D01*
X78179021Y-90369822D01*
X78871469Y-90657352D01*
X79621241Y-90658006D01*
X80314191Y-90371686D01*
X80844822Y-89841979D01*
X81132352Y-89149531D01*
X81133006Y-88399759D01*
X80846686Y-87706809D01*
X80316979Y-87176178D01*
X79624531Y-86888648D01*
X78874759Y-86887994D01*
X78181809Y-87174314D01*
X77651178Y-87704021D01*
X77363648Y-88396469D01*
X77362994Y-89146241D01*
X73788811Y-89146241D01*
X73824750Y-89059691D01*
X73825248Y-88488813D01*
X73607243Y-87961200D01*
X73203923Y-87557176D01*
X72676691Y-87338250D01*
X72105813Y-87337752D01*
X71578200Y-87555757D01*
X71174176Y-87959077D01*
X71111687Y-88109568D01*
X71081041Y-88035577D01*
X70705134Y-87620611D01*
X70199041Y-87381086D01*
X69977000Y-87502371D01*
X69723000Y-87502371D01*
X69500959Y-87381086D01*
X68994866Y-87620611D01*
X68618959Y-88035577D01*
X68458096Y-88423961D01*
X60457444Y-88423961D01*
X60224811Y-88075802D01*
X59842725Y-87820500D01*
X60224811Y-87565198D01*
X60535880Y-87099651D01*
X60645113Y-86550500D01*
X60535880Y-86001349D01*
X60224811Y-85535802D01*
X59820297Y-85265514D01*
X60037134Y-85162889D01*
X60413041Y-84747923D01*
X60573904Y-84359539D01*
X60451915Y-84137500D01*
X59309000Y-84137500D01*
X59309000Y-84157500D01*
X59055000Y-84157500D01*
X59055000Y-84137500D01*
X57912085Y-84137500D01*
X57790096Y-84359539D01*
X57950959Y-84747923D01*
X58326866Y-85162889D01*
X58543703Y-85265514D01*
X58139189Y-85535802D01*
X57828120Y-86001349D01*
X57718887Y-86550500D01*
X53025113Y-86550500D01*
X52915880Y-86001349D01*
X52604811Y-85535802D01*
X52222725Y-85280500D01*
X52604811Y-85025198D01*
X52915880Y-84559651D01*
X53025113Y-84010500D01*
X52915880Y-83461349D01*
X52604811Y-82995802D01*
X52222725Y-82740500D01*
X52604811Y-82485198D01*
X52915880Y-82019651D01*
X53025113Y-81470500D01*
X52915880Y-80921349D01*
X52604811Y-80455802D01*
X52200297Y-80185514D01*
X52417134Y-80082889D01*
X52793041Y-79667923D01*
X52953904Y-79279539D01*
X52831915Y-79057500D01*
X51689000Y-79057500D01*
X51689000Y-79077500D01*
X51435000Y-79077500D01*
X51435000Y-79057500D01*
X50292085Y-79057500D01*
X50170096Y-79279539D01*
X50330959Y-79667923D01*
X50706866Y-80082889D01*
X50923703Y-80185514D01*
X50519189Y-80455802D01*
X50208120Y-80921349D01*
X50098887Y-81470500D01*
X39497000Y-81470500D01*
X39497000Y-76739539D01*
X50170096Y-76739539D01*
X50330959Y-77127923D01*
X50706866Y-77542889D01*
X50955367Y-77660500D01*
X50706866Y-77778111D01*
X50330959Y-78193077D01*
X50170096Y-78581461D01*
X50292085Y-78803500D01*
X51435000Y-78803500D01*
X51435000Y-76517500D01*
X51689000Y-76517500D01*
X51689000Y-78803500D01*
X52831915Y-78803500D01*
X52953904Y-78581461D01*
X52793041Y-78193077D01*
X52417134Y-77778111D01*
X52168633Y-77660500D01*
X52417134Y-77542889D01*
X52793041Y-77127923D01*
X52953904Y-76739539D01*
X52831915Y-76517500D01*
X51689000Y-76517500D01*
X51435000Y-76517500D01*
X50292085Y-76517500D01*
X50170096Y-76739539D01*
X39497000Y-76739539D01*
X39497000Y-74199539D01*
X50170096Y-74199539D01*
X50330959Y-74587923D01*
X50706866Y-75002889D01*
X50955367Y-75120500D01*
X50706866Y-75238111D01*
X50330959Y-75653077D01*
X50170096Y-76041461D01*
X50292085Y-76263500D01*
X51435000Y-76263500D01*
X51435000Y-73977500D01*
X51689000Y-73977500D01*
X51689000Y-76263500D01*
X52831915Y-76263500D01*
X52953904Y-76041461D01*
X52793041Y-75653077D01*
X52417134Y-75238111D01*
X52168633Y-75120500D01*
X52417134Y-75002889D01*
X52793041Y-74587923D01*
X52953904Y-74199539D01*
X52831915Y-73977500D01*
X51689000Y-73977500D01*
X51435000Y-73977500D01*
X50292085Y-73977500D01*
X50170096Y-74199539D01*
X39497000Y-74199539D01*
X39497000Y-73850500D01*
X57718887Y-73850500D01*
X57828120Y-74399651D01*
X58139189Y-74865198D01*
X58521275Y-75120500D01*
X58139189Y-75375802D01*
X57828120Y-75841349D01*
X57718887Y-76390500D01*
X57828120Y-76939651D01*
X58139189Y-77405198D01*
X58521275Y-77660500D01*
X58139189Y-77915802D01*
X57828120Y-78381349D01*
X57718887Y-78930500D01*
X57828120Y-79479651D01*
X58139189Y-79945198D01*
X58521275Y-80200500D01*
X58139189Y-80455802D01*
X57828120Y-80921349D01*
X57718887Y-81470500D01*
X57828120Y-82019651D01*
X58139189Y-82485198D01*
X58543703Y-82755486D01*
X58326866Y-82858111D01*
X57950959Y-83273077D01*
X57790096Y-83661461D01*
X57912085Y-83883500D01*
X59055000Y-83883500D01*
X59055000Y-83863500D01*
X59309000Y-83863500D01*
X59309000Y-83883500D01*
X60451915Y-83883500D01*
X60573904Y-83661461D01*
X60413041Y-83273077D01*
X60037134Y-82858111D01*
X59820297Y-82755486D01*
X60224811Y-82485198D01*
X60535880Y-82019651D01*
X60645113Y-81470500D01*
X60535880Y-80921349D01*
X60360584Y-80659000D01*
X62993560Y-80659000D01*
X62993560Y-82409000D01*
X63037838Y-82644317D01*
X63176910Y-82860441D01*
X63389110Y-83005431D01*
X63641000Y-83056440D01*
X65391000Y-83056440D01*
X65626317Y-83012162D01*
X65842441Y-82873090D01*
X65979994Y-82671774D01*
X66018914Y-82710694D01*
X66133546Y-82596062D01*
X66216884Y-82849953D01*
X66781306Y-83055590D01*
X67381458Y-83029579D01*
X67815116Y-82849953D01*
X67898455Y-82596060D01*
X67016000Y-81713605D01*
X67001858Y-81727748D01*
X66822253Y-81548143D01*
X66836395Y-81534000D01*
X67195605Y-81534000D01*
X68078060Y-82416455D01*
X68331953Y-82333116D01*
X68537590Y-81768694D01*
X68511579Y-81168542D01*
X68331953Y-80734884D01*
X68078060Y-80651545D01*
X67195605Y-81534000D01*
X66836395Y-81534000D01*
X66822253Y-81519858D01*
X67001858Y-81340253D01*
X67016000Y-81354395D01*
X67898455Y-80471940D01*
X67815116Y-80218047D01*
X67250694Y-80012410D01*
X66650542Y-80038421D01*
X66216884Y-80218047D01*
X66133546Y-80471938D01*
X66018914Y-80357306D01*
X65977864Y-80398356D01*
X65855090Y-80207559D01*
X65642890Y-80062569D01*
X65391000Y-80011560D01*
X63641000Y-80011560D01*
X63405683Y-80055838D01*
X63189559Y-80194910D01*
X63044569Y-80407110D01*
X62993560Y-80659000D01*
X60360584Y-80659000D01*
X60224811Y-80455802D01*
X59842725Y-80200500D01*
X60224811Y-79945198D01*
X60535880Y-79479651D01*
X60645113Y-78930500D01*
X60535880Y-78381349D01*
X60224811Y-77915802D01*
X59842725Y-77660500D01*
X60224811Y-77405198D01*
X60535880Y-76939651D01*
X60645113Y-76390500D01*
X60575601Y-76041039D01*
X68458096Y-76041039D01*
X68618959Y-76429423D01*
X68994866Y-76844389D01*
X69500959Y-77083914D01*
X69723000Y-76962629D01*
X69723000Y-75819000D01*
X68580085Y-75819000D01*
X68458096Y-76041039D01*
X60575601Y-76041039D01*
X60535880Y-75841349D01*
X60224811Y-75375802D01*
X60175662Y-75342961D01*
X68458096Y-75342961D01*
X68580085Y-75565000D01*
X69723000Y-75565000D01*
X69723000Y-74421371D01*
X69977000Y-74421371D01*
X69977000Y-75565000D01*
X69997000Y-75565000D01*
X69997000Y-75819000D01*
X69977000Y-75819000D01*
X69977000Y-76962629D01*
X70199041Y-77083914D01*
X70705134Y-76844389D01*
X71081041Y-76429423D01*
X71111570Y-76355715D01*
X71172757Y-76503800D01*
X71576077Y-76907824D01*
X72103309Y-77126750D01*
X72674187Y-77127248D01*
X73201800Y-76909243D01*
X73605824Y-76505923D01*
X73819622Y-75991040D01*
X77897738Y-75991040D01*
X78127138Y-76546229D01*
X78551537Y-76971370D01*
X79106325Y-77201738D01*
X79707040Y-77202262D01*
X80262229Y-76972862D01*
X80658318Y-76577464D01*
X81051537Y-76971370D01*
X81606325Y-77201738D01*
X82207040Y-77202262D01*
X82762229Y-76972862D01*
X83158318Y-76577464D01*
X83551537Y-76971370D01*
X84106325Y-77201738D01*
X84707040Y-77202262D01*
X85262229Y-76972862D01*
X85658318Y-76577464D01*
X86051537Y-76971370D01*
X86606325Y-77201738D01*
X87207040Y-77202262D01*
X87762229Y-76972862D01*
X87931103Y-76804283D01*
X88068910Y-77018441D01*
X88281110Y-77163431D01*
X88533000Y-77214440D01*
X90283000Y-77214440D01*
X90518317Y-77170162D01*
X90734441Y-77031090D01*
X90879431Y-76818890D01*
X90930440Y-76567000D01*
X90930440Y-74817000D01*
X90886162Y-74581683D01*
X90747090Y-74365559D01*
X90534890Y-74220569D01*
X90283000Y-74169560D01*
X88533000Y-74169560D01*
X88297683Y-74213838D01*
X88081559Y-74352910D01*
X87936569Y-74565110D01*
X87933214Y-74581676D01*
X87764463Y-74412630D01*
X87209675Y-74182262D01*
X86608960Y-74181738D01*
X86053771Y-74411138D01*
X85657682Y-74806536D01*
X85264463Y-74412630D01*
X84709675Y-74182262D01*
X84108960Y-74181738D01*
X83553771Y-74411138D01*
X83157682Y-74806536D01*
X82764463Y-74412630D01*
X82209675Y-74182262D01*
X81608960Y-74181738D01*
X81053771Y-74411138D01*
X80657682Y-74806536D01*
X80264463Y-74412630D01*
X79709675Y-74182262D01*
X79108960Y-74181738D01*
X78553771Y-74411138D01*
X78128630Y-74835537D01*
X77898262Y-75390325D01*
X77897738Y-75991040D01*
X73819622Y-75991040D01*
X73824750Y-75978691D01*
X73825248Y-75407813D01*
X73607243Y-74880200D01*
X73203923Y-74476176D01*
X72676691Y-74257250D01*
X72105813Y-74256752D01*
X71578200Y-74474757D01*
X71174176Y-74878077D01*
X71111687Y-75028568D01*
X71081041Y-74954577D01*
X70705134Y-74539611D01*
X70199041Y-74300086D01*
X69977000Y-74421371D01*
X69723000Y-74421371D01*
X69500959Y-74300086D01*
X68994866Y-74539611D01*
X68618959Y-74954577D01*
X68458096Y-75342961D01*
X60175662Y-75342961D01*
X59842725Y-75120500D01*
X60224811Y-74865198D01*
X60535880Y-74399651D01*
X60645113Y-73850500D01*
X60535880Y-73301349D01*
X60224811Y-72835802D01*
X59759264Y-72524733D01*
X59210113Y-72415500D01*
X59153887Y-72415500D01*
X58604736Y-72524733D01*
X58139189Y-72835802D01*
X57828120Y-73301349D01*
X57718887Y-73850500D01*
X39497000Y-73850500D01*
X39497000Y-73501461D01*
X50170096Y-73501461D01*
X50292085Y-73723500D01*
X51435000Y-73723500D01*
X51435000Y-72579871D01*
X51689000Y-72579871D01*
X51689000Y-73723500D01*
X52831915Y-73723500D01*
X52953904Y-73501461D01*
X52793041Y-73113077D01*
X52417134Y-72698111D01*
X51911041Y-72458586D01*
X51689000Y-72579871D01*
X51435000Y-72579871D01*
X51212959Y-72458586D01*
X50706866Y-72698111D01*
X50330959Y-73113077D01*
X50170096Y-73501461D01*
X39497000Y-73501461D01*
X39497000Y-64979517D01*
X41626088Y-64979517D01*
X41694077Y-65220460D01*
X42213171Y-65405201D01*
X42763448Y-65377230D01*
X43141923Y-65220460D01*
X43209912Y-64979517D01*
X42418000Y-64187605D01*
X41626088Y-64979517D01*
X39497000Y-64979517D01*
X39497000Y-63803171D01*
X41020799Y-63803171D01*
X41048770Y-64353448D01*
X41205540Y-64731923D01*
X41446483Y-64799912D01*
X42238395Y-64008000D01*
X42597605Y-64008000D01*
X43389517Y-64799912D01*
X43630460Y-64731923D01*
X43815201Y-64212829D01*
X43787230Y-63662552D01*
X43630460Y-63284077D01*
X43389517Y-63216088D01*
X42597605Y-64008000D01*
X42238395Y-64008000D01*
X41446483Y-63216088D01*
X41205540Y-63284077D01*
X41020799Y-63803171D01*
X39497000Y-63803171D01*
X39497000Y-55638000D01*
X41020560Y-55638000D01*
X41020560Y-57138000D01*
X41064838Y-57373317D01*
X41203910Y-57589441D01*
X41416110Y-57734431D01*
X41613262Y-57774355D01*
X41244539Y-58142436D01*
X41033241Y-58651298D01*
X41032760Y-59202285D01*
X41243169Y-59711515D01*
X41632436Y-60101461D01*
X41864870Y-60197976D01*
X41634485Y-60293169D01*
X41244539Y-60682436D01*
X41033241Y-61191298D01*
X41032760Y-61742285D01*
X41243169Y-62251515D01*
X41632436Y-62641461D01*
X41848979Y-62731377D01*
X41694077Y-62795540D01*
X41626088Y-63036483D01*
X42418000Y-63828395D01*
X43209912Y-63036483D01*
X43141923Y-62795540D01*
X42975379Y-62736268D01*
X43201515Y-62642831D01*
X43591461Y-62253564D01*
X43802759Y-61744702D01*
X43803240Y-61193715D01*
X43592831Y-60684485D01*
X43203564Y-60294539D01*
X42971130Y-60198024D01*
X43201515Y-60102831D01*
X43591461Y-59713564D01*
X43802759Y-59204702D01*
X43803240Y-58653715D01*
X43592831Y-58144485D01*
X43223909Y-57774920D01*
X43403317Y-57741162D01*
X43573022Y-57631960D01*
X43572760Y-57932285D01*
X43783169Y-58441515D01*
X44172436Y-58831461D01*
X44404870Y-58927976D01*
X44174485Y-59023169D01*
X43784539Y-59412436D01*
X43573241Y-59921298D01*
X43572760Y-60472285D01*
X43783169Y-60981515D01*
X44172436Y-61371461D01*
X44404870Y-61467976D01*
X44174485Y-61563169D01*
X43784539Y-61952436D01*
X43573241Y-62461298D01*
X43572760Y-63012285D01*
X43783169Y-63521515D01*
X44172436Y-63911461D01*
X44404870Y-64007976D01*
X44174485Y-64103169D01*
X43784539Y-64492436D01*
X43573241Y-65001298D01*
X43572760Y-65552285D01*
X43783169Y-66061515D01*
X44172436Y-66451461D01*
X44681298Y-66662759D01*
X45232285Y-66663240D01*
X45741515Y-66452831D01*
X46131461Y-66063564D01*
X46342759Y-65554702D01*
X46343240Y-65003715D01*
X46141721Y-64516000D01*
X50288041Y-64516000D01*
X50402115Y-65089489D01*
X50726971Y-65575670D01*
X51213152Y-65900526D01*
X51786641Y-66014600D01*
X51845359Y-66014600D01*
X52418848Y-65900526D01*
X52905029Y-65575670D01*
X53086000Y-65304828D01*
X53266971Y-65575670D01*
X53753152Y-65900526D01*
X54326641Y-66014600D01*
X54385359Y-66014600D01*
X54958848Y-65900526D01*
X55445029Y-65575670D01*
X55626000Y-65304828D01*
X55806971Y-65575670D01*
X56293152Y-65900526D01*
X56866641Y-66014600D01*
X56925359Y-66014600D01*
X57498848Y-65900526D01*
X57985029Y-65575670D01*
X58165992Y-65304839D01*
X58547510Y-65722821D01*
X59076973Y-65970968D01*
X59309000Y-65850469D01*
X59309000Y-64643000D01*
X59289000Y-64643000D01*
X59289000Y-64389000D01*
X59309000Y-64389000D01*
X59309000Y-63181531D01*
X59563000Y-63181531D01*
X59563000Y-64389000D01*
X59583000Y-64389000D01*
X59583000Y-64643000D01*
X59563000Y-64643000D01*
X59563000Y-65850469D01*
X59795027Y-65970968D01*
X60324490Y-65722821D01*
X60706008Y-65304839D01*
X60886971Y-65575670D01*
X61373152Y-65900526D01*
X61946641Y-66014600D01*
X62005359Y-66014600D01*
X62578848Y-65900526D01*
X63065029Y-65575670D01*
X63246000Y-65304828D01*
X63426971Y-65575670D01*
X63913152Y-65900526D01*
X64486641Y-66014600D01*
X64545359Y-66014600D01*
X65118848Y-65900526D01*
X65605029Y-65575670D01*
X65786000Y-65304828D01*
X65966971Y-65575670D01*
X66453152Y-65900526D01*
X67026641Y-66014600D01*
X67085359Y-66014600D01*
X67658848Y-65900526D01*
X68145029Y-65575670D01*
X68326000Y-65304828D01*
X68506971Y-65575670D01*
X68993152Y-65900526D01*
X69566641Y-66014600D01*
X69625359Y-66014600D01*
X70198848Y-65900526D01*
X70685029Y-65575670D01*
X70866000Y-65304828D01*
X71046971Y-65575670D01*
X71533152Y-65900526D01*
X72106641Y-66014600D01*
X72165359Y-66014600D01*
X72738848Y-65900526D01*
X73225029Y-65575670D01*
X73406000Y-65304828D01*
X73586971Y-65575670D01*
X74073152Y-65900526D01*
X74646641Y-66014600D01*
X74705359Y-66014600D01*
X75278848Y-65900526D01*
X75765029Y-65575670D01*
X76089885Y-65089489D01*
X76203959Y-64516000D01*
X76089885Y-63942511D01*
X75765029Y-63456330D01*
X75278848Y-63131474D01*
X74705359Y-63017400D01*
X74646641Y-63017400D01*
X74073152Y-63131474D01*
X73586971Y-63456330D01*
X73406000Y-63727172D01*
X73225029Y-63456330D01*
X72738848Y-63131474D01*
X72165359Y-63017400D01*
X72106641Y-63017400D01*
X71533152Y-63131474D01*
X71046971Y-63456330D01*
X70866000Y-63727172D01*
X70685029Y-63456330D01*
X70198848Y-63131474D01*
X69625359Y-63017400D01*
X69566641Y-63017400D01*
X68993152Y-63131474D01*
X68506971Y-63456330D01*
X68326000Y-63727172D01*
X68145029Y-63456330D01*
X67658848Y-63131474D01*
X67085359Y-63017400D01*
X67026641Y-63017400D01*
X66453152Y-63131474D01*
X65966971Y-63456330D01*
X65786000Y-63727172D01*
X65605029Y-63456330D01*
X65118848Y-63131474D01*
X64545359Y-63017400D01*
X64486641Y-63017400D01*
X63913152Y-63131474D01*
X63426971Y-63456330D01*
X63246000Y-63727172D01*
X63065029Y-63456330D01*
X62578848Y-63131474D01*
X62005359Y-63017400D01*
X61946641Y-63017400D01*
X61373152Y-63131474D01*
X60886971Y-63456330D01*
X60706008Y-63727161D01*
X60324490Y-63309179D01*
X59795027Y-63061032D01*
X59563000Y-63181531D01*
X59309000Y-63181531D01*
X59076973Y-63061032D01*
X58547510Y-63309179D01*
X58165992Y-63727161D01*
X57985029Y-63456330D01*
X57498848Y-63131474D01*
X56925359Y-63017400D01*
X56866641Y-63017400D01*
X56293152Y-63131474D01*
X55806971Y-63456330D01*
X55626000Y-63727172D01*
X55445029Y-63456330D01*
X54958848Y-63131474D01*
X54385359Y-63017400D01*
X54326641Y-63017400D01*
X53753152Y-63131474D01*
X53266971Y-63456330D01*
X53086000Y-63727172D01*
X52905029Y-63456330D01*
X52418848Y-63131474D01*
X51845359Y-63017400D01*
X51786641Y-63017400D01*
X51213152Y-63131474D01*
X50726971Y-63456330D01*
X50402115Y-63942511D01*
X50288041Y-64516000D01*
X46141721Y-64516000D01*
X46132831Y-64494485D01*
X45743564Y-64104539D01*
X45511130Y-64008024D01*
X45741515Y-63912831D01*
X46131461Y-63523564D01*
X46342759Y-63014702D01*
X46343240Y-62463715D01*
X46132831Y-61954485D01*
X45743564Y-61564539D01*
X45511130Y-61468024D01*
X45741515Y-61372831D01*
X46131461Y-60983564D01*
X46342759Y-60474702D01*
X46343240Y-59923715D01*
X46132831Y-59414485D01*
X45743564Y-59024539D01*
X45511130Y-58928024D01*
X45741515Y-58832831D01*
X46131461Y-58443564D01*
X46342759Y-57934702D01*
X46343240Y-57383715D01*
X46132831Y-56874485D01*
X45743564Y-56484539D01*
X45234702Y-56273241D01*
X44683715Y-56272760D01*
X44174485Y-56483169D01*
X43815440Y-56841589D01*
X43815440Y-55638000D01*
X43771162Y-55402683D01*
X43632090Y-55186559D01*
X43419890Y-55041569D01*
X43168000Y-54990560D01*
X41668000Y-54990560D01*
X41432683Y-55034838D01*
X41216559Y-55173910D01*
X41071569Y-55386110D01*
X41020560Y-55638000D01*
X39497000Y-55638000D01*
X39497000Y-53467000D01*
X95123000Y-53467000D01*
X95123000Y-63537103D01*
X95123000Y-63537103D01*
G37*
X95123000Y-63537103D02*
X95069029Y-63456330D01*
X94582848Y-63131474D01*
X94009359Y-63017400D01*
X93950641Y-63017400D01*
X93377152Y-63131474D01*
X92890971Y-63456330D01*
X92710000Y-63727172D01*
X92529029Y-63456330D01*
X92042848Y-63131474D01*
X91469359Y-63017400D01*
X91410641Y-63017400D01*
X90837152Y-63131474D01*
X90350971Y-63456330D01*
X90170000Y-63727172D01*
X89989029Y-63456330D01*
X89502848Y-63131474D01*
X88929359Y-63017400D01*
X88870641Y-63017400D01*
X88297152Y-63131474D01*
X87810971Y-63456330D01*
X87630000Y-63727172D01*
X87449029Y-63456330D01*
X86962848Y-63131474D01*
X86389359Y-63017400D01*
X86330641Y-63017400D01*
X85757152Y-63131474D01*
X85270971Y-63456330D01*
X85090000Y-63727172D01*
X84909029Y-63456330D01*
X84422848Y-63131474D01*
X83849359Y-63017400D01*
X83790641Y-63017400D01*
X83217152Y-63131474D01*
X82730971Y-63456330D01*
X82550000Y-63727172D01*
X82369029Y-63456330D01*
X81882848Y-63131474D01*
X81309359Y-63017400D01*
X81250641Y-63017400D01*
X80677152Y-63131474D01*
X80190971Y-63456330D01*
X80010000Y-63727172D01*
X79829029Y-63456330D01*
X79342848Y-63131474D01*
X78769359Y-63017400D01*
X78710641Y-63017400D01*
X78137152Y-63131474D01*
X77650971Y-63456330D01*
X77326115Y-63942511D01*
X77212041Y-64516000D01*
X77326115Y-65089489D01*
X77650971Y-65575670D01*
X78137152Y-65900526D01*
X78710641Y-66014600D01*
X78769359Y-66014600D01*
X79098356Y-65949158D01*
X84552599Y-71403401D01*
X84799161Y-71568148D01*
X85090000Y-71626000D01*
X92141198Y-71626000D01*
X92458000Y-71942802D01*
X92458000Y-79441198D01*
X88870599Y-83028599D01*
X88705852Y-83275161D01*
X88648000Y-83566000D01*
X88648000Y-87047799D01*
X88341809Y-87174314D01*
X87811178Y-87704021D01*
X87523648Y-88396469D01*
X87522994Y-89146241D01*
X87809314Y-89839191D01*
X88339021Y-90369822D01*
X89031469Y-90657352D01*
X89781241Y-90658006D01*
X90474191Y-90371686D01*
X91004822Y-89841979D01*
X91292352Y-89149531D01*
X91293006Y-88399759D01*
X91006686Y-87706809D01*
X90476979Y-87176178D01*
X90168000Y-87047879D01*
X90168000Y-83880802D01*
X93755401Y-80293401D01*
X93920148Y-80046839D01*
X93978000Y-79756000D01*
X93978000Y-71628000D01*
X93920148Y-71337161D01*
X93755401Y-71090599D01*
X92993401Y-70328599D01*
X92746839Y-70163852D01*
X92456000Y-70106000D01*
X85404802Y-70106000D01*
X81312731Y-66013929D01*
X81882848Y-65900526D01*
X82369029Y-65575670D01*
X82550000Y-65304828D01*
X82730971Y-65575670D01*
X83217152Y-65900526D01*
X83790641Y-66014600D01*
X83849359Y-66014600D01*
X84422848Y-65900526D01*
X84909029Y-65575670D01*
X85090000Y-65304828D01*
X85270971Y-65575670D01*
X85757152Y-65900526D01*
X86330641Y-66014600D01*
X86389359Y-66014600D01*
X86962848Y-65900526D01*
X87449029Y-65575670D01*
X87630000Y-65304828D01*
X87810971Y-65575670D01*
X88297152Y-65900526D01*
X88870641Y-66014600D01*
X88929359Y-66014600D01*
X89502848Y-65900526D01*
X89989029Y-65575670D01*
X90170000Y-65304828D01*
X90350971Y-65575670D01*
X90837152Y-65900526D01*
X91410641Y-66014600D01*
X91469359Y-66014600D01*
X92042848Y-65900526D01*
X92529029Y-65575670D01*
X92710000Y-65304828D01*
X92890971Y-65575670D01*
X93377152Y-65900526D01*
X93950641Y-66014600D01*
X94009359Y-66014600D01*
X94582848Y-65900526D01*
X95069029Y-65575670D01*
X95123000Y-65494897D01*
X95123000Y-111797103D01*
X95069029Y-111716330D01*
X94582848Y-111391474D01*
X94009359Y-111277400D01*
X93950641Y-111277400D01*
X93377152Y-111391474D01*
X92890971Y-111716330D01*
X92710000Y-111987172D01*
X92529029Y-111716330D01*
X92042848Y-111391474D01*
X91469359Y-111277400D01*
X91410641Y-111277400D01*
X90837152Y-111391474D01*
X90350971Y-111716330D01*
X90170000Y-111987172D01*
X89989029Y-111716330D01*
X89502848Y-111391474D01*
X88929359Y-111277400D01*
X88870641Y-111277400D01*
X88297152Y-111391474D01*
X87810971Y-111716330D01*
X87630000Y-111987172D01*
X87449029Y-111716330D01*
X86962848Y-111391474D01*
X86389359Y-111277400D01*
X86330641Y-111277400D01*
X85757152Y-111391474D01*
X85270971Y-111716330D01*
X85090000Y-111987172D01*
X84909029Y-111716330D01*
X84422848Y-111391474D01*
X83849359Y-111277400D01*
X83790641Y-111277400D01*
X83217152Y-111391474D01*
X82730971Y-111716330D01*
X82406115Y-112202511D01*
X82292041Y-112776000D01*
X82406115Y-113349489D01*
X82730971Y-113835670D01*
X83217152Y-114160526D01*
X83279863Y-114173000D01*
X79280137Y-114173000D01*
X79342848Y-114160526D01*
X79829029Y-113835670D01*
X80153885Y-113349489D01*
X80267959Y-112776000D01*
X80153885Y-112202511D01*
X79829029Y-111716330D01*
X79342848Y-111391474D01*
X78769359Y-111277400D01*
X78710641Y-111277400D01*
X78137152Y-111391474D01*
X77650971Y-111716330D01*
X77470008Y-111987161D01*
X77088490Y-111569179D01*
X76559027Y-111321032D01*
X76327000Y-111441531D01*
X76327000Y-112649000D01*
X76347000Y-112649000D01*
X76347000Y-112903000D01*
X76327000Y-112903000D01*
X76327000Y-112923000D01*
X76073000Y-112923000D01*
X76073000Y-112903000D01*
X73787000Y-112903000D01*
X73787000Y-112923000D01*
X73533000Y-112923000D01*
X73533000Y-112903000D01*
X73513000Y-112903000D01*
X73513000Y-112649000D01*
X73533000Y-112649000D01*
X73533000Y-111441531D01*
X73787000Y-111441531D01*
X73787000Y-112649000D01*
X76073000Y-112649000D01*
X76073000Y-111441531D01*
X75840973Y-111321032D01*
X75311510Y-111569179D01*
X74930000Y-111987152D01*
X74548490Y-111569179D01*
X74019027Y-111321032D01*
X73787000Y-111441531D01*
X73533000Y-111441531D01*
X73300973Y-111321032D01*
X72771510Y-111569179D01*
X72389992Y-111987161D01*
X72209029Y-111716330D01*
X71722848Y-111391474D01*
X71149359Y-111277400D01*
X71090641Y-111277400D01*
X70517152Y-111391474D01*
X70030971Y-111716330D01*
X69850000Y-111987172D01*
X69669029Y-111716330D01*
X69182848Y-111391474D01*
X68609359Y-111277400D01*
X68550641Y-111277400D01*
X67977152Y-111391474D01*
X67490971Y-111716330D01*
X67310000Y-111987172D01*
X67129029Y-111716330D01*
X66642848Y-111391474D01*
X66069359Y-111277400D01*
X66010641Y-111277400D01*
X65437152Y-111391474D01*
X64950971Y-111716330D01*
X64770000Y-111987172D01*
X64589029Y-111716330D01*
X64102848Y-111391474D01*
X63529359Y-111277400D01*
X63470641Y-111277400D01*
X62897152Y-111391474D01*
X62410971Y-111716330D01*
X62230000Y-111987172D01*
X62049029Y-111716330D01*
X61562848Y-111391474D01*
X60989359Y-111277400D01*
X60930641Y-111277400D01*
X60357152Y-111391474D01*
X59870971Y-111716330D01*
X59546115Y-112202511D01*
X59432041Y-112776000D01*
X59546115Y-113349489D01*
X59870971Y-113835670D01*
X60357152Y-114160526D01*
X60419863Y-114173000D01*
X48754089Y-114173000D01*
X48883636Y-114043679D01*
X49224611Y-113222519D01*
X49225387Y-112333381D01*
X48885845Y-111511628D01*
X48257679Y-110882364D01*
X47436519Y-110541389D01*
X46547381Y-110540613D01*
X45725628Y-110880155D01*
X45096364Y-111508321D01*
X44755389Y-112329481D01*
X44754613Y-113218619D01*
X45094155Y-114040372D01*
X45226551Y-114173000D01*
X39497000Y-114173000D01*
X39497000Y-97745517D01*
X41626088Y-97745517D01*
X41694077Y-97986460D01*
X42213171Y-98171201D01*
X42763448Y-98143230D01*
X43141923Y-97986460D01*
X43209912Y-97745517D01*
X42418000Y-96953605D01*
X41626088Y-97745517D01*
X39497000Y-97745517D01*
X39497000Y-96569171D01*
X41020799Y-96569171D01*
X41048770Y-97119448D01*
X41205540Y-97497923D01*
X41446483Y-97565912D01*
X42238395Y-96774000D01*
X42597605Y-96774000D01*
X43389517Y-97565912D01*
X43630460Y-97497923D01*
X43815201Y-96978829D01*
X43787230Y-96428552D01*
X43630460Y-96050077D01*
X43389517Y-95982088D01*
X42597605Y-96774000D01*
X42238395Y-96774000D01*
X41446483Y-95982088D01*
X41205540Y-96050077D01*
X41020799Y-96569171D01*
X39497000Y-96569171D01*
X39497000Y-88404000D01*
X41020560Y-88404000D01*
X41020560Y-89904000D01*
X41064838Y-90139317D01*
X41203910Y-90355441D01*
X41416110Y-90500431D01*
X41613262Y-90540355D01*
X41244539Y-90908436D01*
X41033241Y-91417298D01*
X41032760Y-91968285D01*
X41243169Y-92477515D01*
X41632436Y-92867461D01*
X41864870Y-92963976D01*
X41634485Y-93059169D01*
X41244539Y-93448436D01*
X41033241Y-93957298D01*
X41032760Y-94508285D01*
X41243169Y-95017515D01*
X41632436Y-95407461D01*
X41848979Y-95497377D01*
X41694077Y-95561540D01*
X41626088Y-95802483D01*
X42418000Y-96594395D01*
X43209912Y-95802483D01*
X43141923Y-95561540D01*
X42975379Y-95502268D01*
X43201515Y-95408831D01*
X43591461Y-95019564D01*
X43802759Y-94510702D01*
X43803240Y-93959715D01*
X43592831Y-93450485D01*
X43203564Y-93060539D01*
X42971130Y-92964024D01*
X43201515Y-92868831D01*
X43591461Y-92479564D01*
X43802759Y-91970702D01*
X43803240Y-91419715D01*
X43592831Y-90910485D01*
X43223909Y-90540920D01*
X43403317Y-90507162D01*
X43573022Y-90397960D01*
X43572760Y-90698285D01*
X43783169Y-91207515D01*
X44172436Y-91597461D01*
X44404870Y-91693976D01*
X44174485Y-91789169D01*
X43784539Y-92178436D01*
X43573241Y-92687298D01*
X43572760Y-93238285D01*
X43783169Y-93747515D01*
X44172436Y-94137461D01*
X44404870Y-94233976D01*
X44174485Y-94329169D01*
X43784539Y-94718436D01*
X43573241Y-95227298D01*
X43572760Y-95778285D01*
X43783169Y-96287515D01*
X44172436Y-96677461D01*
X44404870Y-96773976D01*
X44174485Y-96869169D01*
X43784539Y-97258436D01*
X43573241Y-97767298D01*
X43572760Y-98318285D01*
X43783169Y-98827515D01*
X44172436Y-99217461D01*
X44681298Y-99428759D01*
X45232285Y-99429240D01*
X45741515Y-99218831D01*
X46131461Y-98829564D01*
X46342759Y-98320702D01*
X46343240Y-97769715D01*
X46132831Y-97260485D01*
X45743564Y-96870539D01*
X45511130Y-96774024D01*
X45741515Y-96678831D01*
X46131461Y-96289564D01*
X46342759Y-95780702D01*
X46343240Y-95229715D01*
X46132831Y-94720485D01*
X45743564Y-94330539D01*
X45511130Y-94234024D01*
X45741515Y-94138831D01*
X46131461Y-93749564D01*
X46342759Y-93240702D01*
X46343240Y-92689715D01*
X46132831Y-92180485D01*
X45743564Y-91790539D01*
X45511130Y-91694024D01*
X45741515Y-91598831D01*
X46131461Y-91209564D01*
X46342759Y-90700702D01*
X46343240Y-90149715D01*
X46132831Y-89640485D01*
X45743564Y-89250539D01*
X45234702Y-89039241D01*
X44683715Y-89038760D01*
X44174485Y-89249169D01*
X43815440Y-89607589D01*
X43815440Y-88404000D01*
X43771162Y-88168683D01*
X43632090Y-87952559D01*
X43419890Y-87807569D01*
X43168000Y-87756560D01*
X41668000Y-87756560D01*
X41432683Y-87800838D01*
X41216559Y-87939910D01*
X41071569Y-88152110D01*
X41020560Y-88404000D01*
X39497000Y-88404000D01*
X39497000Y-81470500D01*
X50098887Y-81470500D01*
X50208120Y-82019651D01*
X50519189Y-82485198D01*
X50901275Y-82740500D01*
X50519189Y-82995802D01*
X50208120Y-83461349D01*
X50098887Y-84010500D01*
X50208120Y-84559651D01*
X50519189Y-85025198D01*
X50901275Y-85280500D01*
X50519189Y-85535802D01*
X50208120Y-86001349D01*
X50098887Y-86550500D01*
X50208120Y-87099651D01*
X50519189Y-87565198D01*
X50901275Y-87820500D01*
X50519189Y-88075802D01*
X50208120Y-88541349D01*
X50098887Y-89090500D01*
X50208120Y-89639651D01*
X50519189Y-90105198D01*
X50901275Y-90360500D01*
X50519189Y-90615802D01*
X50208120Y-91081349D01*
X50098887Y-91630500D01*
X50208120Y-92179651D01*
X50519189Y-92645198D01*
X50901275Y-92900500D01*
X50519189Y-93155802D01*
X50208120Y-93621349D01*
X50098887Y-94170500D01*
X50208120Y-94719651D01*
X50519189Y-95185198D01*
X50901275Y-95440500D01*
X50519189Y-95695802D01*
X50208120Y-96161349D01*
X50098887Y-96710500D01*
X50208120Y-97259651D01*
X50519189Y-97725198D01*
X50901275Y-97980500D01*
X50519189Y-98235802D01*
X50208120Y-98701349D01*
X50098887Y-99250500D01*
X50208120Y-99799651D01*
X50519189Y-100265198D01*
X50901275Y-100520500D01*
X50519189Y-100775802D01*
X50208120Y-101241349D01*
X50098887Y-101790500D01*
X50208120Y-102339651D01*
X50519189Y-102805198D01*
X50901275Y-103060500D01*
X50519189Y-103315802D01*
X50208120Y-103781349D01*
X50098887Y-104330500D01*
X50208120Y-104879651D01*
X50519189Y-105345198D01*
X50901275Y-105600500D01*
X50519189Y-105855802D01*
X50208120Y-106321349D01*
X50098887Y-106870500D01*
X50208120Y-107419651D01*
X50519189Y-107885198D01*
X50984736Y-108196267D01*
X51533887Y-108305500D01*
X51590113Y-108305500D01*
X52139264Y-108196267D01*
X52604811Y-107885198D01*
X52915880Y-107419651D01*
X53025113Y-106870500D01*
X52915880Y-106321349D01*
X52604811Y-105855802D01*
X52222725Y-105600500D01*
X52604811Y-105345198D01*
X52915880Y-104879651D01*
X53025113Y-104330500D01*
X52915880Y-103781349D01*
X52604811Y-103315802D01*
X52222725Y-103060500D01*
X52604811Y-102805198D01*
X52915880Y-102339651D01*
X53025113Y-101790500D01*
X52915880Y-101241349D01*
X52604811Y-100775802D01*
X52222725Y-100520500D01*
X52604811Y-100265198D01*
X52915880Y-99799651D01*
X53025113Y-99250500D01*
X52915880Y-98701349D01*
X52604811Y-98235802D01*
X52222725Y-97980500D01*
X52604811Y-97725198D01*
X52915880Y-97259651D01*
X53025113Y-96710500D01*
X52915880Y-96161349D01*
X52604811Y-95695802D01*
X52222725Y-95440500D01*
X52604811Y-95185198D01*
X52915880Y-94719651D01*
X53025113Y-94170500D01*
X52915880Y-93621349D01*
X52604811Y-93155802D01*
X52222725Y-92900500D01*
X52604811Y-92645198D01*
X52915880Y-92179651D01*
X53025113Y-91630500D01*
X52915880Y-91081349D01*
X52604811Y-90615802D01*
X52222725Y-90360500D01*
X52604811Y-90105198D01*
X52915880Y-89639651D01*
X53025113Y-89090500D01*
X52915880Y-88541349D01*
X52604811Y-88075802D01*
X52222725Y-87820500D01*
X52604811Y-87565198D01*
X52915880Y-87099651D01*
X53025113Y-86550500D01*
X57718887Y-86550500D01*
X57828120Y-87099651D01*
X58139189Y-87565198D01*
X58521275Y-87820500D01*
X58139189Y-88075802D01*
X57828120Y-88541349D01*
X57718887Y-89090500D01*
X57828120Y-89639651D01*
X58139189Y-90105198D01*
X58521275Y-90360500D01*
X58139189Y-90615802D01*
X57828120Y-91081349D01*
X57718887Y-91630500D01*
X57828120Y-92179651D01*
X58139189Y-92645198D01*
X58521275Y-92900500D01*
X58139189Y-93155802D01*
X57828120Y-93621349D01*
X57718887Y-94170500D01*
X57828120Y-94719651D01*
X58139189Y-95185198D01*
X58521275Y-95440500D01*
X58139189Y-95695802D01*
X57828120Y-96161349D01*
X57718887Y-96710500D01*
X57828120Y-97259651D01*
X58139189Y-97725198D01*
X58521275Y-97980500D01*
X58139189Y-98235802D01*
X57828120Y-98701349D01*
X57718887Y-99250500D01*
X57828120Y-99799651D01*
X58139189Y-100265198D01*
X58521275Y-100520500D01*
X58139189Y-100775802D01*
X57828120Y-101241349D01*
X57718887Y-101790500D01*
X57828120Y-102339651D01*
X58139189Y-102805198D01*
X58521275Y-103060500D01*
X58139189Y-103315802D01*
X57828120Y-103781349D01*
X57718887Y-104330500D01*
X57828120Y-104879651D01*
X58139189Y-105345198D01*
X58283465Y-105441601D01*
X58146683Y-105467338D01*
X57930559Y-105606410D01*
X57785569Y-105818610D01*
X57734560Y-106070500D01*
X57734560Y-107670500D01*
X57778838Y-107905817D01*
X57917910Y-108121941D01*
X58130110Y-108266931D01*
X58382000Y-108317940D01*
X59982000Y-108317940D01*
X60217317Y-108273662D01*
X60433441Y-108134590D01*
X60578431Y-107922390D01*
X60629440Y-107670500D01*
X60629440Y-106070500D01*
X60585162Y-105835183D01*
X60446090Y-105619059D01*
X60233890Y-105474069D01*
X60078911Y-105442685D01*
X60224811Y-105345198D01*
X60535880Y-104879651D01*
X60645113Y-104330500D01*
X60535880Y-103781349D01*
X60224811Y-103315802D01*
X60079996Y-103219039D01*
X68458096Y-103219039D01*
X68618959Y-103607423D01*
X68994866Y-104022389D01*
X69500959Y-104261914D01*
X69723000Y-104140629D01*
X69723000Y-102997000D01*
X68580085Y-102997000D01*
X68458096Y-103219039D01*
X60079996Y-103219039D01*
X59842725Y-103060500D01*
X60224811Y-102805198D01*
X60414732Y-102520961D01*
X68458096Y-102520961D01*
X68580085Y-102743000D01*
X69723000Y-102743000D01*
X69723000Y-101599371D01*
X69977000Y-101599371D01*
X69977000Y-102743000D01*
X69997000Y-102743000D01*
X69997000Y-102997000D01*
X69977000Y-102997000D01*
X69977000Y-104140629D01*
X70199041Y-104261914D01*
X70705134Y-104022389D01*
X71081041Y-103607423D01*
X71111570Y-103533715D01*
X71172757Y-103681800D01*
X71576077Y-104085824D01*
X72103309Y-104304750D01*
X72674187Y-104305248D01*
X73201800Y-104087243D01*
X73605824Y-103683923D01*
X73819622Y-103169040D01*
X77897738Y-103169040D01*
X78127138Y-103724229D01*
X78551537Y-104149370D01*
X79106325Y-104379738D01*
X79707040Y-104380262D01*
X80262229Y-104150862D01*
X80658318Y-103755464D01*
X81051537Y-104149370D01*
X81606325Y-104379738D01*
X82207040Y-104380262D01*
X82762229Y-104150862D01*
X83158318Y-103755464D01*
X83551537Y-104149370D01*
X84106325Y-104379738D01*
X84707040Y-104380262D01*
X85262229Y-104150862D01*
X85658318Y-103755464D01*
X86051537Y-104149370D01*
X86606325Y-104379738D01*
X87207040Y-104380262D01*
X87762229Y-104150862D01*
X87931103Y-103982283D01*
X88068910Y-104196441D01*
X88281110Y-104341431D01*
X88533000Y-104392440D01*
X90283000Y-104392440D01*
X90518317Y-104348162D01*
X90734441Y-104209090D01*
X90879431Y-103996890D01*
X90930440Y-103745000D01*
X90930440Y-101995000D01*
X90886162Y-101759683D01*
X90747090Y-101543559D01*
X90534890Y-101398569D01*
X90283000Y-101347560D01*
X88533000Y-101347560D01*
X88297683Y-101391838D01*
X88081559Y-101530910D01*
X87936569Y-101743110D01*
X87933214Y-101759676D01*
X87764463Y-101590630D01*
X87209675Y-101360262D01*
X86608960Y-101359738D01*
X86053771Y-101589138D01*
X85657682Y-101984536D01*
X85264463Y-101590630D01*
X84709675Y-101360262D01*
X84108960Y-101359738D01*
X83553771Y-101589138D01*
X83157682Y-101984536D01*
X82764463Y-101590630D01*
X82209675Y-101360262D01*
X81608960Y-101359738D01*
X81053771Y-101589138D01*
X80657682Y-101984536D01*
X80264463Y-101590630D01*
X79709675Y-101360262D01*
X79108960Y-101359738D01*
X78553771Y-101589138D01*
X78128630Y-102013537D01*
X77898262Y-102568325D01*
X77897738Y-103169040D01*
X73819622Y-103169040D01*
X73824750Y-103156691D01*
X73825248Y-102585813D01*
X73607243Y-102058200D01*
X73203923Y-101654176D01*
X72676691Y-101435250D01*
X72105813Y-101434752D01*
X71578200Y-101652757D01*
X71174176Y-102056077D01*
X71111687Y-102206568D01*
X71081041Y-102132577D01*
X70705134Y-101717611D01*
X70199041Y-101478086D01*
X69977000Y-101599371D01*
X69723000Y-101599371D01*
X69500959Y-101478086D01*
X68994866Y-101717611D01*
X68618959Y-102132577D01*
X68458096Y-102520961D01*
X60414732Y-102520961D01*
X60535880Y-102339651D01*
X60645113Y-101790500D01*
X60535880Y-101241349D01*
X60224811Y-100775802D01*
X59842725Y-100520500D01*
X60224811Y-100265198D01*
X60535880Y-99799651D01*
X60645113Y-99250500D01*
X60535880Y-98701349D01*
X60224811Y-98235802D01*
X59842725Y-97980500D01*
X60224811Y-97725198D01*
X60535880Y-97259651D01*
X60645113Y-96710500D01*
X60535880Y-96161349D01*
X60224811Y-95695802D01*
X59842725Y-95440500D01*
X60224811Y-95185198D01*
X60535880Y-94719651D01*
X60645113Y-94170500D01*
X60535880Y-93621349D01*
X60224811Y-93155802D01*
X59842725Y-92900500D01*
X60224811Y-92645198D01*
X60535880Y-92179651D01*
X60645113Y-91630500D01*
X60535880Y-91081349D01*
X60224811Y-90615802D01*
X59842725Y-90360500D01*
X60224811Y-90105198D01*
X60535880Y-89639651D01*
X60638839Y-89122039D01*
X68458096Y-89122039D01*
X68618959Y-89510423D01*
X68994866Y-89925389D01*
X69500959Y-90164914D01*
X69723000Y-90043629D01*
X69723000Y-88900000D01*
X68580085Y-88900000D01*
X68458096Y-89122039D01*
X60638839Y-89122039D01*
X60645113Y-89090500D01*
X60535880Y-88541349D01*
X60457444Y-88423961D01*
X68458096Y-88423961D01*
X68580085Y-88646000D01*
X69723000Y-88646000D01*
X69723000Y-87502371D01*
X69977000Y-87502371D01*
X69977000Y-88646000D01*
X69997000Y-88646000D01*
X69997000Y-88900000D01*
X69977000Y-88900000D01*
X69977000Y-90043629D01*
X70199041Y-90164914D01*
X70705134Y-89925389D01*
X71081041Y-89510423D01*
X71111570Y-89436715D01*
X71172757Y-89584800D01*
X71576077Y-89988824D01*
X72103309Y-90207750D01*
X72674187Y-90208248D01*
X73201800Y-89990243D01*
X73605824Y-89586923D01*
X73788811Y-89146241D01*
X77362994Y-89146241D01*
X77649314Y-89839191D01*
X78179021Y-90369822D01*
X78871469Y-90657352D01*
X79621241Y-90658006D01*
X80314191Y-90371686D01*
X80844822Y-89841979D01*
X81132352Y-89149531D01*
X81133006Y-88399759D01*
X80846686Y-87706809D01*
X80316979Y-87176178D01*
X79624531Y-86888648D01*
X78874759Y-86887994D01*
X78181809Y-87174314D01*
X77651178Y-87704021D01*
X77363648Y-88396469D01*
X77362994Y-89146241D01*
X73788811Y-89146241D01*
X73824750Y-89059691D01*
X73825248Y-88488813D01*
X73607243Y-87961200D01*
X73203923Y-87557176D01*
X72676691Y-87338250D01*
X72105813Y-87337752D01*
X71578200Y-87555757D01*
X71174176Y-87959077D01*
X71111687Y-88109568D01*
X71081041Y-88035577D01*
X70705134Y-87620611D01*
X70199041Y-87381086D01*
X69977000Y-87502371D01*
X69723000Y-87502371D01*
X69500959Y-87381086D01*
X68994866Y-87620611D01*
X68618959Y-88035577D01*
X68458096Y-88423961D01*
X60457444Y-88423961D01*
X60224811Y-88075802D01*
X59842725Y-87820500D01*
X60224811Y-87565198D01*
X60535880Y-87099651D01*
X60645113Y-86550500D01*
X60535880Y-86001349D01*
X60224811Y-85535802D01*
X59820297Y-85265514D01*
X60037134Y-85162889D01*
X60413041Y-84747923D01*
X60573904Y-84359539D01*
X60451915Y-84137500D01*
X59309000Y-84137500D01*
X59309000Y-84157500D01*
X59055000Y-84157500D01*
X59055000Y-84137500D01*
X57912085Y-84137500D01*
X57790096Y-84359539D01*
X57950959Y-84747923D01*
X58326866Y-85162889D01*
X58543703Y-85265514D01*
X58139189Y-85535802D01*
X57828120Y-86001349D01*
X57718887Y-86550500D01*
X53025113Y-86550500D01*
X52915880Y-86001349D01*
X52604811Y-85535802D01*
X52222725Y-85280500D01*
X52604811Y-85025198D01*
X52915880Y-84559651D01*
X53025113Y-84010500D01*
X52915880Y-83461349D01*
X52604811Y-82995802D01*
X52222725Y-82740500D01*
X52604811Y-82485198D01*
X52915880Y-82019651D01*
X53025113Y-81470500D01*
X52915880Y-80921349D01*
X52604811Y-80455802D01*
X52200297Y-80185514D01*
X52417134Y-80082889D01*
X52793041Y-79667923D01*
X52953904Y-79279539D01*
X52831915Y-79057500D01*
X51689000Y-79057500D01*
X51689000Y-79077500D01*
X51435000Y-79077500D01*
X51435000Y-79057500D01*
X50292085Y-79057500D01*
X50170096Y-79279539D01*
X50330959Y-79667923D01*
X50706866Y-80082889D01*
X50923703Y-80185514D01*
X50519189Y-80455802D01*
X50208120Y-80921349D01*
X50098887Y-81470500D01*
X39497000Y-81470500D01*
X39497000Y-76739539D01*
X50170096Y-76739539D01*
X50330959Y-77127923D01*
X50706866Y-77542889D01*
X50955367Y-77660500D01*
X50706866Y-77778111D01*
X50330959Y-78193077D01*
X50170096Y-78581461D01*
X50292085Y-78803500D01*
X51435000Y-78803500D01*
X51435000Y-76517500D01*
X51689000Y-76517500D01*
X51689000Y-78803500D01*
X52831915Y-78803500D01*
X52953904Y-78581461D01*
X52793041Y-78193077D01*
X52417134Y-77778111D01*
X52168633Y-77660500D01*
X52417134Y-77542889D01*
X52793041Y-77127923D01*
X52953904Y-76739539D01*
X52831915Y-76517500D01*
X51689000Y-76517500D01*
X51435000Y-76517500D01*
X50292085Y-76517500D01*
X50170096Y-76739539D01*
X39497000Y-76739539D01*
X39497000Y-74199539D01*
X50170096Y-74199539D01*
X50330959Y-74587923D01*
X50706866Y-75002889D01*
X50955367Y-75120500D01*
X50706866Y-75238111D01*
X50330959Y-75653077D01*
X50170096Y-76041461D01*
X50292085Y-76263500D01*
X51435000Y-76263500D01*
X51435000Y-73977500D01*
X51689000Y-73977500D01*
X51689000Y-76263500D01*
X52831915Y-76263500D01*
X52953904Y-76041461D01*
X52793041Y-75653077D01*
X52417134Y-75238111D01*
X52168633Y-75120500D01*
X52417134Y-75002889D01*
X52793041Y-74587923D01*
X52953904Y-74199539D01*
X52831915Y-73977500D01*
X51689000Y-73977500D01*
X51435000Y-73977500D01*
X50292085Y-73977500D01*
X50170096Y-74199539D01*
X39497000Y-74199539D01*
X39497000Y-73850500D01*
X57718887Y-73850500D01*
X57828120Y-74399651D01*
X58139189Y-74865198D01*
X58521275Y-75120500D01*
X58139189Y-75375802D01*
X57828120Y-75841349D01*
X57718887Y-76390500D01*
X57828120Y-76939651D01*
X58139189Y-77405198D01*
X58521275Y-77660500D01*
X58139189Y-77915802D01*
X57828120Y-78381349D01*
X57718887Y-78930500D01*
X57828120Y-79479651D01*
X58139189Y-79945198D01*
X58521275Y-80200500D01*
X58139189Y-80455802D01*
X57828120Y-80921349D01*
X57718887Y-81470500D01*
X57828120Y-82019651D01*
X58139189Y-82485198D01*
X58543703Y-82755486D01*
X58326866Y-82858111D01*
X57950959Y-83273077D01*
X57790096Y-83661461D01*
X57912085Y-83883500D01*
X59055000Y-83883500D01*
X59055000Y-83863500D01*
X59309000Y-83863500D01*
X59309000Y-83883500D01*
X60451915Y-83883500D01*
X60573904Y-83661461D01*
X60413041Y-83273077D01*
X60037134Y-82858111D01*
X59820297Y-82755486D01*
X60224811Y-82485198D01*
X60535880Y-82019651D01*
X60645113Y-81470500D01*
X60535880Y-80921349D01*
X60360584Y-80659000D01*
X62993560Y-80659000D01*
X62993560Y-82409000D01*
X63037838Y-82644317D01*
X63176910Y-82860441D01*
X63389110Y-83005431D01*
X63641000Y-83056440D01*
X65391000Y-83056440D01*
X65626317Y-83012162D01*
X65842441Y-82873090D01*
X65979994Y-82671774D01*
X66018914Y-82710694D01*
X66133546Y-82596062D01*
X66216884Y-82849953D01*
X66781306Y-83055590D01*
X67381458Y-83029579D01*
X67815116Y-82849953D01*
X67898455Y-82596060D01*
X67016000Y-81713605D01*
X67001858Y-81727748D01*
X66822253Y-81548143D01*
X66836395Y-81534000D01*
X67195605Y-81534000D01*
X68078060Y-82416455D01*
X68331953Y-82333116D01*
X68537590Y-81768694D01*
X68511579Y-81168542D01*
X68331953Y-80734884D01*
X68078060Y-80651545D01*
X67195605Y-81534000D01*
X66836395Y-81534000D01*
X66822253Y-81519858D01*
X67001858Y-81340253D01*
X67016000Y-81354395D01*
X67898455Y-80471940D01*
X67815116Y-80218047D01*
X67250694Y-80012410D01*
X66650542Y-80038421D01*
X66216884Y-80218047D01*
X66133546Y-80471938D01*
X66018914Y-80357306D01*
X65977864Y-80398356D01*
X65855090Y-80207559D01*
X65642890Y-80062569D01*
X65391000Y-80011560D01*
X63641000Y-80011560D01*
X63405683Y-80055838D01*
X63189559Y-80194910D01*
X63044569Y-80407110D01*
X62993560Y-80659000D01*
X60360584Y-80659000D01*
X60224811Y-80455802D01*
X59842725Y-80200500D01*
X60224811Y-79945198D01*
X60535880Y-79479651D01*
X60645113Y-78930500D01*
X60535880Y-78381349D01*
X60224811Y-77915802D01*
X59842725Y-77660500D01*
X60224811Y-77405198D01*
X60535880Y-76939651D01*
X60645113Y-76390500D01*
X60575601Y-76041039D01*
X68458096Y-76041039D01*
X68618959Y-76429423D01*
X68994866Y-76844389D01*
X69500959Y-77083914D01*
X69723000Y-76962629D01*
X69723000Y-75819000D01*
X68580085Y-75819000D01*
X68458096Y-76041039D01*
X60575601Y-76041039D01*
X60535880Y-75841349D01*
X60224811Y-75375802D01*
X60175662Y-75342961D01*
X68458096Y-75342961D01*
X68580085Y-75565000D01*
X69723000Y-75565000D01*
X69723000Y-74421371D01*
X69977000Y-74421371D01*
X69977000Y-75565000D01*
X69997000Y-75565000D01*
X69997000Y-75819000D01*
X69977000Y-75819000D01*
X69977000Y-76962629D01*
X70199041Y-77083914D01*
X70705134Y-76844389D01*
X71081041Y-76429423D01*
X71111570Y-76355715D01*
X71172757Y-76503800D01*
X71576077Y-76907824D01*
X72103309Y-77126750D01*
X72674187Y-77127248D01*
X73201800Y-76909243D01*
X73605824Y-76505923D01*
X73819622Y-75991040D01*
X77897738Y-75991040D01*
X78127138Y-76546229D01*
X78551537Y-76971370D01*
X79106325Y-77201738D01*
X79707040Y-77202262D01*
X80262229Y-76972862D01*
X80658318Y-76577464D01*
X81051537Y-76971370D01*
X81606325Y-77201738D01*
X82207040Y-77202262D01*
X82762229Y-76972862D01*
X83158318Y-76577464D01*
X83551537Y-76971370D01*
X84106325Y-77201738D01*
X84707040Y-77202262D01*
X85262229Y-76972862D01*
X85658318Y-76577464D01*
X86051537Y-76971370D01*
X86606325Y-77201738D01*
X87207040Y-77202262D01*
X87762229Y-76972862D01*
X87931103Y-76804283D01*
X88068910Y-77018441D01*
X88281110Y-77163431D01*
X88533000Y-77214440D01*
X90283000Y-77214440D01*
X90518317Y-77170162D01*
X90734441Y-77031090D01*
X90879431Y-76818890D01*
X90930440Y-76567000D01*
X90930440Y-74817000D01*
X90886162Y-74581683D01*
X90747090Y-74365559D01*
X90534890Y-74220569D01*
X90283000Y-74169560D01*
X88533000Y-74169560D01*
X88297683Y-74213838D01*
X88081559Y-74352910D01*
X87936569Y-74565110D01*
X87933214Y-74581676D01*
X87764463Y-74412630D01*
X87209675Y-74182262D01*
X86608960Y-74181738D01*
X86053771Y-74411138D01*
X85657682Y-74806536D01*
X85264463Y-74412630D01*
X84709675Y-74182262D01*
X84108960Y-74181738D01*
X83553771Y-74411138D01*
X83157682Y-74806536D01*
X82764463Y-74412630D01*
X82209675Y-74182262D01*
X81608960Y-74181738D01*
X81053771Y-74411138D01*
X80657682Y-74806536D01*
X80264463Y-74412630D01*
X79709675Y-74182262D01*
X79108960Y-74181738D01*
X78553771Y-74411138D01*
X78128630Y-74835537D01*
X77898262Y-75390325D01*
X77897738Y-75991040D01*
X73819622Y-75991040D01*
X73824750Y-75978691D01*
X73825248Y-75407813D01*
X73607243Y-74880200D01*
X73203923Y-74476176D01*
X72676691Y-74257250D01*
X72105813Y-74256752D01*
X71578200Y-74474757D01*
X71174176Y-74878077D01*
X71111687Y-75028568D01*
X71081041Y-74954577D01*
X70705134Y-74539611D01*
X70199041Y-74300086D01*
X69977000Y-74421371D01*
X69723000Y-74421371D01*
X69500959Y-74300086D01*
X68994866Y-74539611D01*
X68618959Y-74954577D01*
X68458096Y-75342961D01*
X60175662Y-75342961D01*
X59842725Y-75120500D01*
X60224811Y-74865198D01*
X60535880Y-74399651D01*
X60645113Y-73850500D01*
X60535880Y-73301349D01*
X60224811Y-72835802D01*
X59759264Y-72524733D01*
X59210113Y-72415500D01*
X59153887Y-72415500D01*
X58604736Y-72524733D01*
X58139189Y-72835802D01*
X57828120Y-73301349D01*
X57718887Y-73850500D01*
X39497000Y-73850500D01*
X39497000Y-73501461D01*
X50170096Y-73501461D01*
X50292085Y-73723500D01*
X51435000Y-73723500D01*
X51435000Y-72579871D01*
X51689000Y-72579871D01*
X51689000Y-73723500D01*
X52831915Y-73723500D01*
X52953904Y-73501461D01*
X52793041Y-73113077D01*
X52417134Y-72698111D01*
X51911041Y-72458586D01*
X51689000Y-72579871D01*
X51435000Y-72579871D01*
X51212959Y-72458586D01*
X50706866Y-72698111D01*
X50330959Y-73113077D01*
X50170096Y-73501461D01*
X39497000Y-73501461D01*
X39497000Y-64979517D01*
X41626088Y-64979517D01*
X41694077Y-65220460D01*
X42213171Y-65405201D01*
X42763448Y-65377230D01*
X43141923Y-65220460D01*
X43209912Y-64979517D01*
X42418000Y-64187605D01*
X41626088Y-64979517D01*
X39497000Y-64979517D01*
X39497000Y-63803171D01*
X41020799Y-63803171D01*
X41048770Y-64353448D01*
X41205540Y-64731923D01*
X41446483Y-64799912D01*
X42238395Y-64008000D01*
X42597605Y-64008000D01*
X43389517Y-64799912D01*
X43630460Y-64731923D01*
X43815201Y-64212829D01*
X43787230Y-63662552D01*
X43630460Y-63284077D01*
X43389517Y-63216088D01*
X42597605Y-64008000D01*
X42238395Y-64008000D01*
X41446483Y-63216088D01*
X41205540Y-63284077D01*
X41020799Y-63803171D01*
X39497000Y-63803171D01*
X39497000Y-55638000D01*
X41020560Y-55638000D01*
X41020560Y-57138000D01*
X41064838Y-57373317D01*
X41203910Y-57589441D01*
X41416110Y-57734431D01*
X41613262Y-57774355D01*
X41244539Y-58142436D01*
X41033241Y-58651298D01*
X41032760Y-59202285D01*
X41243169Y-59711515D01*
X41632436Y-60101461D01*
X41864870Y-60197976D01*
X41634485Y-60293169D01*
X41244539Y-60682436D01*
X41033241Y-61191298D01*
X41032760Y-61742285D01*
X41243169Y-62251515D01*
X41632436Y-62641461D01*
X41848979Y-62731377D01*
X41694077Y-62795540D01*
X41626088Y-63036483D01*
X42418000Y-63828395D01*
X43209912Y-63036483D01*
X43141923Y-62795540D01*
X42975379Y-62736268D01*
X43201515Y-62642831D01*
X43591461Y-62253564D01*
X43802759Y-61744702D01*
X43803240Y-61193715D01*
X43592831Y-60684485D01*
X43203564Y-60294539D01*
X42971130Y-60198024D01*
X43201515Y-60102831D01*
X43591461Y-59713564D01*
X43802759Y-59204702D01*
X43803240Y-58653715D01*
X43592831Y-58144485D01*
X43223909Y-57774920D01*
X43403317Y-57741162D01*
X43573022Y-57631960D01*
X43572760Y-57932285D01*
X43783169Y-58441515D01*
X44172436Y-58831461D01*
X44404870Y-58927976D01*
X44174485Y-59023169D01*
X43784539Y-59412436D01*
X43573241Y-59921298D01*
X43572760Y-60472285D01*
X43783169Y-60981515D01*
X44172436Y-61371461D01*
X44404870Y-61467976D01*
X44174485Y-61563169D01*
X43784539Y-61952436D01*
X43573241Y-62461298D01*
X43572760Y-63012285D01*
X43783169Y-63521515D01*
X44172436Y-63911461D01*
X44404870Y-64007976D01*
X44174485Y-64103169D01*
X43784539Y-64492436D01*
X43573241Y-65001298D01*
X43572760Y-65552285D01*
X43783169Y-66061515D01*
X44172436Y-66451461D01*
X44681298Y-66662759D01*
X45232285Y-66663240D01*
X45741515Y-66452831D01*
X46131461Y-66063564D01*
X46342759Y-65554702D01*
X46343240Y-65003715D01*
X46141721Y-64516000D01*
X50288041Y-64516000D01*
X50402115Y-65089489D01*
X50726971Y-65575670D01*
X51213152Y-65900526D01*
X51786641Y-66014600D01*
X51845359Y-66014600D01*
X52418848Y-65900526D01*
X52905029Y-65575670D01*
X53086000Y-65304828D01*
X53266971Y-65575670D01*
X53753152Y-65900526D01*
X54326641Y-66014600D01*
X54385359Y-66014600D01*
X54958848Y-65900526D01*
X55445029Y-65575670D01*
X55626000Y-65304828D01*
X55806971Y-65575670D01*
X56293152Y-65900526D01*
X56866641Y-66014600D01*
X56925359Y-66014600D01*
X57498848Y-65900526D01*
X57985029Y-65575670D01*
X58165992Y-65304839D01*
X58547510Y-65722821D01*
X59076973Y-65970968D01*
X59309000Y-65850469D01*
X59309000Y-64643000D01*
X59289000Y-64643000D01*
X59289000Y-64389000D01*
X59309000Y-64389000D01*
X59309000Y-63181531D01*
X59563000Y-63181531D01*
X59563000Y-64389000D01*
X59583000Y-64389000D01*
X59583000Y-64643000D01*
X59563000Y-64643000D01*
X59563000Y-65850469D01*
X59795027Y-65970968D01*
X60324490Y-65722821D01*
X60706008Y-65304839D01*
X60886971Y-65575670D01*
X61373152Y-65900526D01*
X61946641Y-66014600D01*
X62005359Y-66014600D01*
X62578848Y-65900526D01*
X63065029Y-65575670D01*
X63246000Y-65304828D01*
X63426971Y-65575670D01*
X63913152Y-65900526D01*
X64486641Y-66014600D01*
X64545359Y-66014600D01*
X65118848Y-65900526D01*
X65605029Y-65575670D01*
X65786000Y-65304828D01*
X65966971Y-65575670D01*
X66453152Y-65900526D01*
X67026641Y-66014600D01*
X67085359Y-66014600D01*
X67658848Y-65900526D01*
X68145029Y-65575670D01*
X68326000Y-65304828D01*
X68506971Y-65575670D01*
X68993152Y-65900526D01*
X69566641Y-66014600D01*
X69625359Y-66014600D01*
X70198848Y-65900526D01*
X70685029Y-65575670D01*
X70866000Y-65304828D01*
X71046971Y-65575670D01*
X71533152Y-65900526D01*
X72106641Y-66014600D01*
X72165359Y-66014600D01*
X72738848Y-65900526D01*
X73225029Y-65575670D01*
X73406000Y-65304828D01*
X73586971Y-65575670D01*
X74073152Y-65900526D01*
X74646641Y-66014600D01*
X74705359Y-66014600D01*
X75278848Y-65900526D01*
X75765029Y-65575670D01*
X76089885Y-65089489D01*
X76203959Y-64516000D01*
X76089885Y-63942511D01*
X75765029Y-63456330D01*
X75278848Y-63131474D01*
X74705359Y-63017400D01*
X74646641Y-63017400D01*
X74073152Y-63131474D01*
X73586971Y-63456330D01*
X73406000Y-63727172D01*
X73225029Y-63456330D01*
X72738848Y-63131474D01*
X72165359Y-63017400D01*
X72106641Y-63017400D01*
X71533152Y-63131474D01*
X71046971Y-63456330D01*
X70866000Y-63727172D01*
X70685029Y-63456330D01*
X70198848Y-63131474D01*
X69625359Y-63017400D01*
X69566641Y-63017400D01*
X68993152Y-63131474D01*
X68506971Y-63456330D01*
X68326000Y-63727172D01*
X68145029Y-63456330D01*
X67658848Y-63131474D01*
X67085359Y-63017400D01*
X67026641Y-63017400D01*
X66453152Y-63131474D01*
X65966971Y-63456330D01*
X65786000Y-63727172D01*
X65605029Y-63456330D01*
X65118848Y-63131474D01*
X64545359Y-63017400D01*
X64486641Y-63017400D01*
X63913152Y-63131474D01*
X63426971Y-63456330D01*
X63246000Y-63727172D01*
X63065029Y-63456330D01*
X62578848Y-63131474D01*
X62005359Y-63017400D01*
X61946641Y-63017400D01*
X61373152Y-63131474D01*
X60886971Y-63456330D01*
X60706008Y-63727161D01*
X60324490Y-63309179D01*
X59795027Y-63061032D01*
X59563000Y-63181531D01*
X59309000Y-63181531D01*
X59076973Y-63061032D01*
X58547510Y-63309179D01*
X58165992Y-63727161D01*
X57985029Y-63456330D01*
X57498848Y-63131474D01*
X56925359Y-63017400D01*
X56866641Y-63017400D01*
X56293152Y-63131474D01*
X55806971Y-63456330D01*
X55626000Y-63727172D01*
X55445029Y-63456330D01*
X54958848Y-63131474D01*
X54385359Y-63017400D01*
X54326641Y-63017400D01*
X53753152Y-63131474D01*
X53266971Y-63456330D01*
X53086000Y-63727172D01*
X52905029Y-63456330D01*
X52418848Y-63131474D01*
X51845359Y-63017400D01*
X51786641Y-63017400D01*
X51213152Y-63131474D01*
X50726971Y-63456330D01*
X50402115Y-63942511D01*
X50288041Y-64516000D01*
X46141721Y-64516000D01*
X46132831Y-64494485D01*
X45743564Y-64104539D01*
X45511130Y-64008024D01*
X45741515Y-63912831D01*
X46131461Y-63523564D01*
X46342759Y-63014702D01*
X46343240Y-62463715D01*
X46132831Y-61954485D01*
X45743564Y-61564539D01*
X45511130Y-61468024D01*
X45741515Y-61372831D01*
X46131461Y-60983564D01*
X46342759Y-60474702D01*
X46343240Y-59923715D01*
X46132831Y-59414485D01*
X45743564Y-59024539D01*
X45511130Y-58928024D01*
X45741515Y-58832831D01*
X46131461Y-58443564D01*
X46342759Y-57934702D01*
X46343240Y-57383715D01*
X46132831Y-56874485D01*
X45743564Y-56484539D01*
X45234702Y-56273241D01*
X44683715Y-56272760D01*
X44174485Y-56483169D01*
X43815440Y-56841589D01*
X43815440Y-55638000D01*
X43771162Y-55402683D01*
X43632090Y-55186559D01*
X43419890Y-55041569D01*
X43168000Y-54990560D01*
X41668000Y-54990560D01*
X41432683Y-55034838D01*
X41216559Y-55173910D01*
X41071569Y-55386110D01*
X41020560Y-55638000D01*
X39497000Y-55638000D01*
X39497000Y-53467000D01*
X95123000Y-53467000D01*
X95123000Y-63537103D01*
M02*
