G04 #@! TF.FileFunction,Copper,L1,Top,Signal*
%FSLAX46Y46*%
G04 Gerber Fmt 4.6, Leading zero omitted, Abs format (unit mm)*
G04 Created by KiCad (PCBNEW 4.0.7) date 09/23/18 17:07:03*
%MOMM*%
%LPD*%
G01*
G04 APERTURE LIST*
%ADD10C,0.100000*%
%ADD11O,1.727200X1.727200*%
%ADD12C,1.600000*%
%ADD13O,1.600000X1.600000*%
%ADD14R,1.750000X1.750000*%
%ADD15C,1.750000*%
%ADD16R,1.600000X1.600000*%
%ADD17C,2.499360*%
%ADD18C,3.650000*%
%ADD19R,1.500000X1.500000*%
%ADD20C,1.500000*%
%ADD21C,0.250000*%
G04 APERTURE END LIST*
D10*
D11*
X83820000Y-112776000D03*
X78740000Y-112776000D03*
X76200000Y-112776000D03*
X73660000Y-112776000D03*
X71120000Y-112776000D03*
X68580000Y-112776000D03*
X66040000Y-112776000D03*
X63500000Y-112776000D03*
X96520000Y-64516000D03*
X93980000Y-64516000D03*
X91440000Y-64516000D03*
X88900000Y-64516000D03*
X86360000Y-64516000D03*
X83820000Y-64516000D03*
X81280000Y-64516000D03*
X78740000Y-64516000D03*
X59436000Y-64516000D03*
X74676000Y-64516000D03*
X72136000Y-64516000D03*
X69596000Y-64516000D03*
X51816000Y-64516000D03*
X54356000Y-64516000D03*
X56896000Y-64516000D03*
X61976000Y-64516000D03*
X64516000Y-64516000D03*
X67056000Y-64516000D03*
X60960000Y-112776000D03*
X86360000Y-112776000D03*
X88900000Y-112776000D03*
X91440000Y-112776000D03*
X93980000Y-112776000D03*
X96520000Y-112776000D03*
D12*
X72390000Y-75692000D03*
D13*
X69850000Y-75692000D03*
D12*
X72390000Y-102870000D03*
D13*
X69850000Y-102870000D03*
D12*
X72390000Y-88773000D03*
D13*
X69850000Y-88773000D03*
D14*
X89408000Y-102870000D03*
D15*
X86908000Y-102870000D03*
X84408000Y-102870000D03*
X81908000Y-102870000D03*
X79408000Y-102870000D03*
D16*
X59182000Y-106870500D03*
D13*
X51562000Y-73850500D03*
X59182000Y-104330500D03*
X51562000Y-76390500D03*
X59182000Y-101790500D03*
X51562000Y-78930500D03*
X59182000Y-99250500D03*
X51562000Y-81470500D03*
X59182000Y-96710500D03*
X51562000Y-84010500D03*
X59182000Y-94170500D03*
X51562000Y-86550500D03*
X59182000Y-91630500D03*
X51562000Y-89090500D03*
X59182000Y-89090500D03*
X51562000Y-91630500D03*
X59182000Y-86550500D03*
X51562000Y-94170500D03*
X59182000Y-84010500D03*
X51562000Y-96710500D03*
X59182000Y-81470500D03*
X51562000Y-99250500D03*
X59182000Y-78930500D03*
X51562000Y-101790500D03*
X59182000Y-76390500D03*
X51562000Y-104330500D03*
X59182000Y-73850500D03*
X51562000Y-106870500D03*
D14*
X89408000Y-75692000D03*
D15*
X86908000Y-75692000D03*
X84408000Y-75692000D03*
X81908000Y-75692000D03*
X79408000Y-75692000D03*
D14*
X64516000Y-81534000D03*
D15*
X67016000Y-81534000D03*
D17*
X79248000Y-88773000D03*
X89408000Y-88773000D03*
D18*
X36068000Y-66768000D03*
X36068000Y-54898000D03*
D19*
X42418000Y-56388000D03*
D20*
X44958000Y-57658000D03*
X42418000Y-58928000D03*
X44958000Y-60198000D03*
X42418000Y-61468000D03*
X44958000Y-62738000D03*
X42418000Y-64008000D03*
X44958000Y-65278000D03*
D18*
X36068000Y-99534000D03*
X36068000Y-87664000D03*
D19*
X42418000Y-89154000D03*
D20*
X44958000Y-90424000D03*
X42418000Y-91694000D03*
X44958000Y-92964000D03*
X42418000Y-94234000D03*
X44958000Y-95504000D03*
X42418000Y-96774000D03*
X44958000Y-98044000D03*
D21*
X72390000Y-75692000D02*
X79408000Y-75692000D01*
X72390000Y-102870000D02*
X79408000Y-102870000D01*
X72390000Y-88773000D02*
X79248000Y-88773000D01*
X71120000Y-112776000D02*
X71120000Y-112522000D01*
X71120000Y-112522000D02*
X69088000Y-110490000D01*
X69088000Y-110490000D02*
X58166000Y-110490000D01*
X58166000Y-110490000D02*
X56388000Y-108712000D01*
X56388000Y-108712000D02*
X56388000Y-89344500D01*
X56388000Y-89344500D02*
X59182000Y-86550500D01*
X89408000Y-75692000D02*
X89408000Y-74422000D01*
X91440000Y-72390000D02*
X91440000Y-64516000D01*
X89408000Y-74422000D02*
X91440000Y-72390000D01*
X86908000Y-75692000D02*
X86908000Y-74128000D01*
X88900000Y-72136000D02*
X88900000Y-64516000D01*
X86908000Y-74128000D02*
X88900000Y-72136000D01*
X84408000Y-75692000D02*
X84408000Y-73072000D01*
X86360000Y-71120000D02*
X86360000Y-64516000D01*
X84408000Y-73072000D02*
X86360000Y-71120000D01*
X81908000Y-75692000D02*
X81908000Y-73032000D01*
X83820000Y-71120000D02*
X83820000Y-64516000D01*
X81908000Y-73032000D02*
X83820000Y-71120000D01*
X44958000Y-57658000D02*
X47498000Y-57658000D01*
X69342000Y-59182000D02*
X74676000Y-64516000D01*
X49022000Y-59182000D02*
X69342000Y-59182000D01*
X47498000Y-57658000D02*
X49022000Y-59182000D01*
X44958000Y-60198000D02*
X48514000Y-60198000D01*
X68580000Y-60198000D02*
X72136000Y-63754000D01*
X48514000Y-60198000D02*
X68580000Y-60198000D01*
X72136000Y-63754000D02*
X72136000Y-64516000D01*
X44958000Y-62738000D02*
X48006000Y-62738000D01*
X66294000Y-61214000D02*
X69596000Y-64516000D01*
X49530000Y-61214000D02*
X66294000Y-61214000D01*
X48006000Y-62738000D02*
X49530000Y-61214000D01*
X59182000Y-78930500D02*
X59182000Y-78740000D01*
X59182000Y-78740000D02*
X55626000Y-75184000D01*
X55626000Y-75184000D02*
X55626000Y-68326000D01*
X55626000Y-68326000D02*
X51816000Y-64516000D01*
X59182000Y-76390500D02*
X59182000Y-76200000D01*
X59182000Y-76200000D02*
X56896000Y-73914000D01*
X56896000Y-73914000D02*
X56896000Y-67056000D01*
X56896000Y-67056000D02*
X54356000Y-64516000D01*
X64516000Y-64516000D02*
X64516000Y-81534000D01*
X44958000Y-65278000D02*
X47752000Y-65278000D01*
X65024000Y-62484000D02*
X67056000Y-64516000D01*
X50546000Y-62484000D02*
X65024000Y-62484000D01*
X47752000Y-65278000D02*
X50546000Y-62484000D01*
X44958000Y-98044000D02*
X47498000Y-98044000D01*
X48831500Y-96710500D02*
X51562000Y-96710500D01*
X47498000Y-98044000D02*
X48831500Y-96710500D01*
X44958000Y-95504000D02*
X47498000Y-95504000D01*
X48831500Y-94170500D02*
X51562000Y-94170500D01*
X47498000Y-95504000D02*
X48831500Y-94170500D01*
X44958000Y-92964000D02*
X47498000Y-92964000D01*
X48831500Y-91630500D02*
X51562000Y-91630500D01*
X47498000Y-92964000D02*
X48831500Y-91630500D01*
X44958000Y-90424000D02*
X47498000Y-90424000D01*
X48831500Y-89090500D02*
X51562000Y-89090500D01*
X47498000Y-90424000D02*
X48831500Y-89090500D01*
X89408000Y-102870000D02*
X89408000Y-103124000D01*
X89408000Y-103124000D02*
X83312000Y-109220000D01*
X83312000Y-109220000D02*
X67056000Y-109220000D01*
X67056000Y-109220000D02*
X64770000Y-106934000D01*
X64770000Y-106934000D02*
X64770000Y-102298500D01*
X64770000Y-102298500D02*
X59182000Y-96710500D01*
X86908000Y-102870000D02*
X86908000Y-103084000D01*
X86908000Y-103084000D02*
X81788000Y-108204000D01*
X81788000Y-108204000D02*
X67564000Y-108204000D01*
X67564000Y-108204000D02*
X65786000Y-106426000D01*
X65786000Y-106426000D02*
X65786000Y-100774500D01*
X65786000Y-100774500D02*
X59182000Y-94170500D01*
X84408000Y-102870000D02*
X84408000Y-103044000D01*
X84408000Y-103044000D02*
X80264000Y-107188000D01*
X80264000Y-107188000D02*
X68072000Y-107188000D01*
X68072000Y-107188000D02*
X66802000Y-105918000D01*
X66802000Y-105918000D02*
X66802000Y-99250500D01*
X66802000Y-99250500D02*
X59182000Y-91630500D01*
X81908000Y-102870000D02*
X81908000Y-103766000D01*
X67818000Y-97726500D02*
X59182000Y-89090500D01*
X67818000Y-105156000D02*
X67818000Y-97726500D01*
X68834000Y-106172000D02*
X67818000Y-105156000D01*
X79502000Y-106172000D02*
X68834000Y-106172000D01*
X81908000Y-103766000D02*
X79502000Y-106172000D01*
M02*
