M48
;DRILL file {KiCad 4.0.7} date 12/08/18 15:01:55
;FORMAT={-:-/ absolute / inch / decimal}
FMAT,2
INCH,TZ
T1C0.031
T2C0.035
T3C0.039
T4C0.039
T5C0.040
T6C0.041
T7C0.126
T8C0.128
%
G90
G05
M72
T1
X2.03Y-2.9075
X2.03Y-3.0075
X2.03Y-3.1075
X2.03Y-3.2075
X2.03Y-3.3075
X2.03Y-3.4075
X2.03Y-3.5075
X2.03Y-3.6075
X2.03Y-3.7075
X2.03Y-3.8075
X2.03Y-3.9075
X2.03Y-4.0075
X2.03Y-4.1075
X2.03Y-4.2075
X2.33Y-2.9075
X2.33Y-3.0075
X2.33Y-3.1075
X2.33Y-3.2075
X2.33Y-3.3075
X2.33Y-3.4075
X2.33Y-3.5075
X2.33Y-3.6075
X2.33Y-3.7075
X2.33Y-3.8075
X2.33Y-3.9075
X2.33Y-4.0075
X2.33Y-4.1075
X2.33Y-4.2075
X2.75Y-2.98
X2.75Y-3.495
X2.75Y-4.05
X2.85Y-2.98
X2.85Y-3.495
X2.85Y-4.05
T2
X1.67Y-2.22
X1.67Y-2.32
X1.67Y-2.42
X1.67Y-2.52
X1.67Y-3.51
X1.67Y-3.61
X1.67Y-3.71
X1.67Y-3.81
X1.77Y-2.27
X1.77Y-2.37
X1.77Y-2.47
X1.77Y-2.57
X1.77Y-3.56
X1.77Y-3.66
X1.77Y-3.76
X1.77Y-3.86
T3
X3.1263Y-2.98
X3.1263Y-4.05
X3.2247Y-2.98
X3.2247Y-4.05
X3.3231Y-2.98
X3.3231Y-4.05
X3.4216Y-2.98
X3.4216Y-4.05
X3.52Y-2.98
X3.52Y-4.05
T4
X3.12Y-3.495
X3.52Y-3.495
T5
X2.04Y-2.54
X2.14Y-2.54
X2.24Y-2.54
X2.34Y-2.54
X2.4Y-4.44
X2.44Y-2.54
X2.5Y-4.44
X2.54Y-2.54
X2.6Y-4.44
X2.64Y-2.54
X2.7Y-4.44
X2.74Y-2.54
X2.8Y-4.44
X2.84Y-2.54
X2.9Y-4.44
X2.94Y-2.54
X3.Y-4.44
X3.1Y-2.54
X3.1Y-4.44
X3.2Y-2.54
X3.3Y-2.54
X3.3Y-4.44
X3.4Y-2.54
X3.4Y-4.44
X3.5Y-2.54
X3.5Y-4.44
X3.6Y-2.54
X3.6Y-4.44
X3.7Y-2.54
X3.7Y-4.44
X3.8Y-2.54
X3.8Y-4.44
T6
X2.54Y-3.21
X2.6384Y-3.21
T7
X1.85Y-4.44
X3.9Y-3.14
X3.9Y-4.24
T8
X1.42Y-2.1613
X1.42Y-2.6287
X1.42Y-3.4513
X1.42Y-3.9187
T0
M30
