G04 #@! TF.FileFunction,Soldermask,Bot*
%FSLAX46Y46*%
G04 Gerber Fmt 4.6, Leading zero omitted, Abs format (unit mm)*
G04 Created by KiCad (PCBNEW 4.0.7) date 09/23/18 17:07:03*
%MOMM*%
%LPD*%
G01*
G04 APERTURE LIST*
%ADD10C,0.100000*%
%ADD11O,1.727200X1.727200*%
%ADD12C,3.200000*%
%ADD13C,1.600000*%
%ADD14O,1.600000X1.600000*%
%ADD15R,1.750000X1.750000*%
%ADD16C,1.750000*%
%ADD17R,1.600000X1.600000*%
%ADD18C,2.499360*%
%ADD19C,3.650000*%
%ADD20R,1.500000X1.500000*%
%ADD21C,1.500000*%
G04 APERTURE END LIST*
D10*
D11*
X83820000Y-112776000D03*
X78740000Y-112776000D03*
X76200000Y-112776000D03*
X73660000Y-112776000D03*
X71120000Y-112776000D03*
X68580000Y-112776000D03*
X66040000Y-112776000D03*
X63500000Y-112776000D03*
X96520000Y-64516000D03*
X93980000Y-64516000D03*
X91440000Y-64516000D03*
X88900000Y-64516000D03*
X86360000Y-64516000D03*
X83820000Y-64516000D03*
X81280000Y-64516000D03*
X78740000Y-64516000D03*
X59436000Y-64516000D03*
X74676000Y-64516000D03*
X72136000Y-64516000D03*
X69596000Y-64516000D03*
D12*
X99060000Y-107696000D03*
X99060000Y-79756000D03*
X46990000Y-112776000D03*
D11*
X51816000Y-64516000D03*
X54356000Y-64516000D03*
X56896000Y-64516000D03*
X61976000Y-64516000D03*
X64516000Y-64516000D03*
X67056000Y-64516000D03*
X60960000Y-112776000D03*
X86360000Y-112776000D03*
X88900000Y-112776000D03*
X91440000Y-112776000D03*
X93980000Y-112776000D03*
X96520000Y-112776000D03*
D13*
X72390000Y-75692000D03*
D14*
X69850000Y-75692000D03*
D13*
X72390000Y-102870000D03*
D14*
X69850000Y-102870000D03*
D13*
X72390000Y-88773000D03*
D14*
X69850000Y-88773000D03*
D15*
X89408000Y-102870000D03*
D16*
X86908000Y-102870000D03*
X84408000Y-102870000D03*
X81908000Y-102870000D03*
X79408000Y-102870000D03*
D17*
X59182000Y-106870500D03*
D14*
X51562000Y-73850500D03*
X59182000Y-104330500D03*
X51562000Y-76390500D03*
X59182000Y-101790500D03*
X51562000Y-78930500D03*
X59182000Y-99250500D03*
X51562000Y-81470500D03*
X59182000Y-96710500D03*
X51562000Y-84010500D03*
X59182000Y-94170500D03*
X51562000Y-86550500D03*
X59182000Y-91630500D03*
X51562000Y-89090500D03*
X59182000Y-89090500D03*
X51562000Y-91630500D03*
X59182000Y-86550500D03*
X51562000Y-94170500D03*
X59182000Y-84010500D03*
X51562000Y-96710500D03*
X59182000Y-81470500D03*
X51562000Y-99250500D03*
X59182000Y-78930500D03*
X51562000Y-101790500D03*
X59182000Y-76390500D03*
X51562000Y-104330500D03*
X59182000Y-73850500D03*
X51562000Y-106870500D03*
D15*
X89408000Y-75692000D03*
D16*
X86908000Y-75692000D03*
X84408000Y-75692000D03*
X81908000Y-75692000D03*
X79408000Y-75692000D03*
D15*
X64516000Y-81534000D03*
D16*
X67016000Y-81534000D03*
D18*
X79248000Y-88773000D03*
X89408000Y-88773000D03*
D19*
X36068000Y-66768000D03*
X36068000Y-54898000D03*
D20*
X42418000Y-56388000D03*
D21*
X44958000Y-57658000D03*
X42418000Y-58928000D03*
X44958000Y-60198000D03*
X42418000Y-61468000D03*
X44958000Y-62738000D03*
X42418000Y-64008000D03*
X44958000Y-65278000D03*
D19*
X36068000Y-99534000D03*
X36068000Y-87664000D03*
D20*
X42418000Y-89154000D03*
D21*
X44958000Y-90424000D03*
X42418000Y-91694000D03*
X44958000Y-92964000D03*
X42418000Y-94234000D03*
X44958000Y-95504000D03*
X42418000Y-96774000D03*
X44958000Y-98044000D03*
M02*
